# Blender 4.1.0
# www.blender.org
o Sphere
v 0.000000 0.555570 0.831470
v 0.000000 0.831470 0.555570
v 0.000000 0.980785 0.195090
v 0.000000 1.000000 0.000000
v 0.000000 0.980785 -0.195090
v 0.000000 0.831470 -0.555570
v 0.038060 0.191342 0.980785
v 0.074658 0.375330 0.923880
v 0.108386 0.544895 0.831470
v 0.137950 0.693520 0.707107
v 0.162212 0.815493 0.555570
v 0.180240 0.906127 0.382683
v 0.191342 0.961940 0.195090
v 0.195090 0.980785 0.000000
v 0.191342 0.961940 -0.195090
v 0.180240 0.906127 -0.382683
v 0.162212 0.815493 -0.555570
v 0.137950 0.693520 -0.707107
v 0.108386 0.544895 -0.831470
v 0.074658 0.375330 -0.923880
v 0.038060 0.191342 -0.980785
v 0.074658 0.180240 0.980785
v 0.146447 0.353553 0.923880
v 0.212608 0.513280 0.831470
v 0.270598 0.653281 0.707107
v 0.318190 0.768178 0.555570
v 0.353553 0.853553 0.382683
v 0.375330 0.906127 0.195090
v 0.382683 0.923879 0.000000
v 0.375330 0.906127 -0.195090
v 0.353553 0.853553 -0.382683
v 0.318190 0.768178 -0.555570
v 0.270598 0.653281 -0.707107
v 0.212608 0.513280 -0.831470
v 0.146447 0.353553 -0.923880
v 0.074658 0.180240 -0.980785
v 0.108386 0.162212 0.980785
v 0.212608 0.318190 0.923880
v 0.308658 0.461940 0.831470
v 0.392847 0.587938 0.707107
v 0.461940 0.691342 0.555570
v 0.513280 0.768178 0.382683
v 0.544895 0.815493 0.195090
v 0.555570 0.831469 0.000000
v 0.544895 0.815493 -0.195090
v 0.513280 0.768178 -0.382683
v 0.461940 0.691342 -0.555570
v 0.392847 0.587938 -0.707107
v 0.308658 0.461940 -0.831470
v 0.212608 0.318190 -0.923880
v 0.108386 0.162212 -0.980785
v 0.137950 0.137950 0.980785
v 0.270598 0.270598 0.923880
v 0.392847 0.392847 0.831470
v 0.500000 0.500000 0.707107
v 0.587938 0.587938 0.555570
v 0.653281 0.653281 0.382683
v 0.693520 0.693520 0.195090
v 0.707107 0.707107 0.000000
v 0.693520 0.693520 -0.195090
v 0.653281 0.653281 -0.382683
v 0.587938 0.587938 -0.555570
v 0.500000 0.500000 -0.707107
v 0.392847 0.392847 -0.831470
v 0.270598 0.270598 -0.923880
v 0.137950 0.137950 -0.980785
v 0.162212 0.108386 0.980785
v 0.318190 0.212608 0.923880
v 0.461940 0.308658 0.831470
v 0.587938 0.392847 0.707107
v 0.691342 0.461940 0.555570
v 0.768178 0.513280 0.382683
v 0.815493 0.544895 0.195090
v 0.831470 0.555570 0.000000
v 0.815493 0.544895 -0.195090
v 0.768178 0.513280 -0.382683
v 0.691342 0.461940 -0.555570
v 0.587938 0.392847 -0.707107
v 0.461940 0.308658 -0.831470
v 0.318190 0.212608 -0.923880
v 0.162212 0.108386 -0.980785
v 0.000000 0.000000 1.000000
v 0.180240 0.074658 0.980785
v 0.353553 0.146447 0.923880
v 0.513280 0.212607 0.831470
v 0.653281 0.270598 0.707107
v 0.768178 0.318190 0.555570
v 0.853553 0.353553 0.382683
v 0.906127 0.375330 0.195090
v 0.923879 0.382683 0.000000
v 0.906127 0.375330 -0.195090
v 0.853553 0.353553 -0.382683
v 0.768178 0.318190 -0.555570
v 0.653281 0.270598 -0.707107
v 0.513280 0.212607 -0.831470
v 0.353553 0.146447 -0.923880
v 0.180240 0.074658 -0.980785
v 0.191342 0.038060 0.980785
v 0.375330 0.074658 0.923880
v 0.544895 0.108386 0.831470
v 0.693520 0.137950 0.707107
v 0.815493 0.162212 0.555570
v 0.906127 0.180240 0.382683
v 0.961940 0.191342 0.195090
v 0.980785 0.195090 0.000000
v 0.961940 0.191342 -0.195090
v 0.906127 0.180240 -0.382683
v 0.815493 0.162212 -0.555570
v 0.693520 0.137950 -0.707107
v 0.544895 0.108386 -0.831470
v 0.375330 0.074658 -0.923880
v 0.191342 0.038060 -0.980785
v 0.195090 0.000000 0.980785
v 0.382683 0.000000 0.923880
v 0.555570 0.000000 0.831470
v 0.707107 0.000000 0.707107
v 0.831469 0.000000 0.555570
v 0.923879 0.000000 0.382683
v 0.980785 0.000000 0.195090
v 1.000000 0.000000 0.000000
v 0.980785 0.000000 -0.195090
v 0.923879 0.000000 -0.382683
v 0.831469 0.000000 -0.555570
v 0.707107 0.000000 -0.707107
v 0.555570 0.000000 -0.831470
v 0.382683 0.000000 -0.923880
v 0.195090 0.000000 -0.980785
v 0.191342 -0.038060 0.980785
v 0.375330 -0.074658 0.923880
v 0.544895 -0.108386 0.831470
v 0.693520 -0.137950 0.707107
v 0.815493 -0.162212 0.555570
v 0.906127 -0.180240 0.382683
v 0.961940 -0.191342 0.195090
v 0.980785 -0.195090 0.000000
v 0.961940 -0.191342 -0.195090
v 0.906127 -0.180240 -0.382683
v 0.815493 -0.162212 -0.555570
v 0.693520 -0.137950 -0.707107
v 0.544895 -0.108386 -0.831470
v 0.375330 -0.074658 -0.923880
v 0.191342 -0.038060 -0.980785
v 0.180240 -0.074658 0.980785
v 0.353553 -0.146447 0.923880
v 0.513280 -0.212608 0.831470
v 0.653281 -0.270598 0.707107
v 0.768178 -0.318190 0.555570
v 0.853553 -0.353553 0.382683
v 0.906127 -0.375330 0.195090
v 0.923879 -0.382683 0.000000
v 0.906127 -0.375330 -0.195090
v 0.853553 -0.353553 -0.382683
v 0.768178 -0.318190 -0.555570
v 0.653281 -0.270598 -0.707107
v 0.513280 -0.212608 -0.831470
v 0.353553 -0.146447 -0.923880
v 0.180240 -0.074658 -0.980785
v 0.162212 -0.108386 0.980785
v 0.318190 -0.212608 0.923880
v 0.461940 -0.308658 0.831470
v 0.587938 -0.392847 0.707107
v 0.691341 -0.461940 0.555570
v 0.768178 -0.513280 0.382683
v 0.815493 -0.544895 0.195090
v 0.831469 -0.555570 0.000000
v 0.815493 -0.544895 -0.195090
v 0.768178 -0.513280 -0.382683
v 0.691341 -0.461940 -0.555570
v 0.587938 -0.392847 -0.707107
v 0.461940 -0.308658 -0.831470
v 0.318190 -0.212608 -0.923880
v 0.162212 -0.108386 -0.980785
v 0.137950 -0.137950 0.980785
v 0.270598 -0.270598 0.923880
v 0.392847 -0.392847 0.831470
v 0.500000 -0.500000 0.707107
v 0.587938 -0.587938 0.555570
v 0.653281 -0.653281 0.382683
v 0.693520 -0.693520 0.195090
v 0.707106 -0.707107 0.000000
v 0.693520 -0.693520 -0.195090
v 0.653281 -0.653281 -0.382683
v 0.587938 -0.587938 -0.555570
v 0.500000 -0.500000 -0.707107
v 0.392847 -0.392847 -0.831470
v 0.270598 -0.270598 -0.923880
v 0.137950 -0.137950 -0.980785
v 0.108386 -0.162212 0.980785
v 0.212607 -0.318190 0.923880
v 0.308658 -0.461940 0.831470
v 0.392847 -0.587938 0.707107
v 0.461940 -0.691342 0.555570
v 0.513280 -0.768178 0.382683
v 0.544895 -0.815493 0.195090
v 0.555570 -0.831469 0.000000
v 0.544895 -0.815493 -0.195090
v 0.513280 -0.768178 -0.382683
v 0.461940 -0.691342 -0.555570
v 0.392847 -0.587938 -0.707107
v 0.308658 -0.461940 -0.831470
v 0.212607 -0.318190 -0.923880
v 0.108386 -0.162212 -0.980785
v 0.074658 -0.180240 0.980785
v 0.146447 -0.353553 0.923880
v 0.212607 -0.513280 0.831470
v 0.270598 -0.653281 0.707107
v 0.318189 -0.768178 0.555570
v 0.353553 -0.853553 0.382683
v 0.375330 -0.906127 0.195090
v 0.382683 -0.923879 0.000000
v 0.375330 -0.906127 -0.195090
v 0.353553 -0.853553 -0.382683
v 0.318189 -0.768178 -0.555570
v 0.270598 -0.653281 -0.707107
v 0.212607 -0.513280 -0.831470
v 0.146447 -0.353553 -0.923880
v 0.074658 -0.180240 -0.980785
v 0.038060 -0.191342 0.980785
v 0.074658 -0.375330 0.923880
v 0.108386 -0.544895 0.831470
v 0.137950 -0.693520 0.707107
v 0.162212 -0.815493 0.555570
v 0.180240 -0.906127 0.382683
v 0.191342 -0.961939 0.195090
v 0.195090 -0.980785 0.000000
v 0.191342 -0.961939 -0.195090
v 0.180240 -0.906127 -0.382683
v 0.162212 -0.815493 -0.555570
v 0.137950 -0.693520 -0.707107
v 0.108386 -0.544895 -0.831470
v 0.074658 -0.375330 -0.923880
v 0.038060 -0.191342 -0.980785
v 0.000000 -0.195090 0.980785
v 0.000000 -0.382683 0.923880
v 0.000000 -0.555570 0.831470
v 0.000000 -0.707107 0.707107
v 0.000000 -0.831469 0.555570
v 0.000000 -0.923879 0.382683
v 0.000000 -0.980785 0.195090
v 0.000000 -0.999999 0.000000
v 0.000000 -0.980785 -0.195090
v 0.000000 -0.923879 -0.382683
v 0.000000 -0.831469 -0.555570
v 0.000000 -0.707107 -0.707107
v 0.000000 -0.555570 -0.831470
v 0.000000 -0.382683 -0.923880
v 0.000000 -0.195090 -0.980785
v -0.038060 -0.191342 0.980785
v -0.074658 -0.375330 0.923880
v -0.108386 -0.544895 0.831470
v -0.137950 -0.693520 0.707107
v -0.162212 -0.815493 0.555570
v -0.180240 -0.906127 0.382683
v -0.191342 -0.961939 0.195090
v -0.195091 -0.980785 0.000000
v -0.191342 -0.961939 -0.195090
v -0.180240 -0.906127 -0.382683
v -0.162212 -0.815493 -0.555570
v -0.137950 -0.693520 -0.707107
v -0.108386 -0.544895 -0.831470
v -0.074658 -0.375330 -0.923880
v -0.038060 -0.191342 -0.980785
v -0.074658 -0.180240 0.980785
v -0.146447 -0.353553 0.923880
v -0.212608 -0.513280 0.831470
v -0.270598 -0.653281 0.707107
v -0.318190 -0.768177 0.555570
v -0.353553 -0.853553 0.382683
v -0.375330 -0.906127 0.195090
v -0.382683 -0.923879 0.000000
v -0.375330 -0.906127 -0.195090
v -0.353553 -0.853553 -0.382683
v -0.318190 -0.768177 -0.555570
v -0.270598 -0.653281 -0.707107
v -0.212608 -0.513280 -0.831470
v -0.146447 -0.353553 -0.923880
v -0.074658 -0.180240 -0.980785
v -0.108386 -0.162212 0.980785
v -0.212608 -0.318190 0.923880
v -0.308658 -0.461939 0.831470
v -0.392847 -0.587938 0.707107
v -0.461940 -0.691341 0.555570
v -0.513280 -0.768178 0.382683
v -0.544895 -0.815493 0.195090
v -0.555570 -0.831469 0.000000
v -0.544895 -0.815493 -0.195090
v -0.513280 -0.768178 -0.382683
v -0.461940 -0.691341 -0.555570
v -0.392847 -0.587938 -0.707107
v -0.308658 -0.461939 -0.831470
v -0.212608 -0.318190 -0.923880
v -0.108386 -0.162212 -0.980785
v -0.137950 -0.137950 0.980785
v -0.270598 -0.270598 0.923880
v -0.392847 -0.392847 0.831470
v -0.500000 -0.500000 0.707107
v -0.587938 -0.587937 0.555570
v -0.653281 -0.653281 0.382683
v -0.693520 -0.693520 0.195090
v -0.707106 -0.707106 0.000000
v -0.693520 -0.693520 -0.195090
v -0.653281 -0.653281 -0.382683
v -0.587938 -0.587937 -0.555570
v -0.500000 -0.500000 -0.707107
v -0.392847 -0.392847 -0.831470
v -0.270598 -0.270598 -0.923880
v -0.137950 -0.137950 -0.980785
v 0.000000 0.000000 -1.000000
v -0.162212 -0.108386 0.980785
v -0.318190 -0.212607 0.923880
v -0.461940 -0.308658 0.831470
v -0.587938 -0.392847 0.707107
v -0.691341 -0.461939 0.555570
v -0.768177 -0.513280 0.382683
v -0.815493 -0.544895 0.195090
v -0.831469 -0.555569 0.000000
v -0.815493 -0.544895 -0.195090
v -0.768177 -0.513280 -0.382683
v -0.691341 -0.461939 -0.555570
v -0.587938 -0.392847 -0.707107
v -0.461940 -0.308658 -0.831470
v -0.318190 -0.212607 -0.923880
v -0.162212 -0.108386 -0.980785
v -0.180240 -0.074658 0.980785
v -0.353553 -0.146447 0.923880
v -0.513280 -0.212607 0.831470
v -0.653281 -0.270598 0.707107
v -0.768177 -0.318189 0.555570
v -0.853553 -0.353553 0.382683
v -0.906127 -0.375330 0.195090
v -0.923879 -0.382683 0.000000
v -0.906127 -0.375330 -0.195090
v -0.853553 -0.353553 -0.382683
v -0.768177 -0.318189 -0.555570
v -0.653281 -0.270598 -0.707107
v -0.513280 -0.212607 -0.831470
v -0.353553 -0.146447 -0.923880
v -0.180240 -0.074658 -0.980785
v -0.191342 -0.038060 0.980785
v -0.375330 -0.074658 0.923880
v -0.544895 -0.108386 0.831470
v -0.693520 -0.137950 0.707107
v -0.815493 -0.162211 0.555570
v -0.906127 -0.180240 0.382683
v -0.961939 -0.191341 0.195090
v -0.980784 -0.195090 0.000000
v -0.961939 -0.191341 -0.195090
v -0.906127 -0.180240 -0.382683
v -0.815493 -0.162211 -0.555570
v -0.693520 -0.137950 -0.707107
v -0.544895 -0.108386 -0.831470
v -0.375330 -0.074658 -0.923880
v -0.191342 -0.038060 -0.980785
v -0.195090 0.000000 0.980785
v -0.382683 0.000000 0.923880
v -0.555570 0.000000 0.831470
v -0.707107 0.000000 0.707107
v -0.831469 0.000000 0.555570
v -0.923879 0.000000 0.382683
v -0.980785 0.000000 0.195090
v -0.999999 0.000000 0.000000
v -0.980785 0.000000 -0.195090
v -0.923879 0.000000 -0.382683
v -0.831469 0.000000 -0.555570
v -0.707107 0.000000 -0.707107
v -0.555570 0.000000 -0.831470
v -0.382683 0.000000 -0.923880
v -0.195090 0.000000 -0.980785
v -0.191342 0.038060 0.980785
v -0.375330 0.074658 0.923880
v -0.544895 0.108386 0.831470
v -0.693520 0.137950 0.707107
v -0.815493 0.162212 0.555570
v -0.906127 0.180240 0.382683
v -0.961939 0.191342 0.195090
v -0.980784 0.195091 0.000000
v -0.961939 0.191342 -0.195090
v -0.906127 0.180240 -0.382683
v -0.815493 0.162212 -0.555570
v -0.693520 0.137950 -0.707107
v -0.544895 0.108386 -0.831470
v -0.375330 0.074658 -0.923880
v -0.191342 0.038060 -0.980785
v -0.180240 0.074658 0.980785
v -0.353553 0.146447 0.923880
v -0.513279 0.212607 0.831470
v -0.653281 0.270598 0.707107
v -0.768177 0.318190 0.555570
v -0.853553 0.353553 0.382683
v -0.906127 0.375330 0.195090
v -0.923878 0.382683 0.000000
v -0.906127 0.375330 -0.195090
v -0.853553 0.353553 -0.382683
v -0.768177 0.318190 -0.555570
v -0.653281 0.270598 -0.707107
v -0.513279 0.212607 -0.831470
v -0.353553 0.146447 -0.923880
v -0.180240 0.074658 -0.980785
v -0.162212 0.108386 0.980785
v -0.318189 0.212607 0.923880
v -0.461939 0.308658 0.831470
v -0.587938 0.392847 0.707107
v -0.691341 0.461940 0.555570
v -0.768177 0.513280 0.382683
v -0.815493 0.544895 0.195090
v -0.831468 0.555570 0.000000
v -0.815493 0.544895 -0.195090
v -0.768177 0.513280 -0.382683
v -0.691341 0.461940 -0.555570
v -0.587938 0.392847 -0.707107
v -0.461939 0.308658 -0.831470
v -0.318189 0.212607 -0.923880
v -0.162212 0.108386 -0.980785
v -0.137950 0.137950 0.980785
v -0.270598 0.270598 0.923880
v -0.392847 0.392847 0.831470
v -0.500000 0.500000 0.707107
v -0.587937 0.587938 0.555570
v -0.653281 0.653281 0.382683
v -0.693519 0.693520 0.195090
v -0.707106 0.707106 0.000000
v -0.693519 0.693520 -0.195090
v -0.653281 0.653281 -0.382683
v -0.587937 0.587938 -0.555570
v -0.500000 0.500000 -0.707107
v -0.392847 0.392847 -0.831470
v -0.270598 0.270598 -0.923880
v -0.137950 0.137950 -0.980785
v -0.108386 0.162212 0.980785
v -0.212607 0.318190 0.923880
v -0.308658 0.461939 0.831470
v -0.392847 0.587938 0.707107
v -0.461939 0.691341 0.555570
v -0.513280 0.768177 0.382683
v -0.544895 0.815493 0.195090
v -0.555569 0.831469 0.000000
v -0.544895 0.815493 -0.195090
v -0.513280 0.768177 -0.382683
v -0.461939 0.691341 -0.555570
v -0.392847 0.587938 -0.707107
v -0.308658 0.461939 -0.831470
v -0.212607 0.318190 -0.923880
v -0.108386 0.162212 -0.980785
v -0.074658 0.180240 0.980785
v -0.146446 0.353553 0.923880
v -0.212607 0.513279 0.831470
v -0.270598 0.653281 0.707107
v -0.318189 0.768177 0.555570
v -0.353553 0.853553 0.382683
v -0.375330 0.906127 0.195090
v -0.382683 0.923879 0.000000
v -0.375330 0.906127 -0.195090
v -0.353553 0.853553 -0.382683
v -0.318189 0.768177 -0.555570
v -0.270598 0.653281 -0.707107
v -0.212607 0.513279 -0.831470
v -0.146446 0.353553 -0.923880
v -0.074658 0.180240 -0.980785
v -0.038060 0.191342 0.980785
v -0.074658 0.375330 0.923880
v -0.108386 0.544895 0.831470
v -0.137950 0.693520 0.707107
v -0.162211 0.815493 0.555570
v -0.180240 0.906127 0.382683
v -0.191341 0.961939 0.195090
v -0.195090 0.980784 0.000000
v -0.191341 0.961939 -0.195090
v -0.180240 0.906127 -0.382683
v -0.162211 0.815493 -0.555570
v -0.137950 0.693520 -0.707107
v -0.108386 0.544895 -0.831470
v -0.074658 0.375330 -0.923880
v -0.038060 0.191342 -0.980785
v 0.000000 0.195090 0.980785
v 0.000000 0.382683 0.923880
v 0.000000 0.707107 0.707107
v 0.000000 0.923879 0.382683
v 0.000000 0.923879 -0.382683
v 0.000000 0.707107 -0.707107
v 0.000000 0.555570 -0.831470
v 0.000000 0.382683 -0.923880
v 0.000000 0.195090 -0.980785
vn -0.0000 0.9810 -0.1939
vn 0.1951 0.9808 -0.0000
vn 0.1914 0.9622 -0.1939
vn -0.0000 0.3879 0.9217
vn 0.0392 0.1971 0.9796
vn 0.0757 0.3804 0.9217
vn 0.1804 0.9070 -0.3805
vn -0.0000 0.9248 -0.3805
vn 0.1092 0.5490 0.8286
vn -0.0000 0.5598 0.8286
vn -0.0000 0.8333 -0.5528
vn 0.1626 0.8173 -0.5528
vn -0.0000 0.7101 0.7041
vn 0.1385 0.6965 0.7041
vn -0.0000 0.7101 -0.7041
vn 0.1385 0.6965 -0.7041
vn 0.1626 0.8173 0.5528
vn -0.0000 0.8333 0.5528
vn 0.1092 0.5490 -0.8286
vn -0.0000 0.5598 -0.8286
vn 0.1804 0.9070 0.3805
vn -0.0000 0.9248 0.3805
vn -0.0000 0.3879 -0.9217
vn 0.0757 0.3804 -0.9217
vn -0.0000 0.9810 0.1939
vn 0.1914 0.9622 0.1939
vn 0.0392 0.1971 -0.9796
vn -0.0000 0.2010 -0.9796
vn -0.0000 1.0000 -0.0000
vn -0.0000 0.2010 0.9796
vn -0.0000 -0.0000 1.0000
vn -0.0000 -0.0000 -1.0000
vn 0.0769 0.1857 -0.9796
vn 0.3827 0.9239 -0.0000
vn 0.0769 0.1857 0.9796
vn 0.3754 0.9063 -0.1939
vn 0.1484 0.3584 0.9217
vn 0.3539 0.8544 -0.3805
vn 0.2142 0.5172 0.8286
vn 0.3189 0.7699 -0.5528
vn 0.2718 0.6561 0.7041
vn 0.2718 0.6561 -0.7041
vn 0.3189 0.7699 0.5528
vn 0.2142 0.5172 -0.8286
vn 0.3539 0.8544 0.3805
vn 0.1484 0.3584 -0.9217
vn 0.3754 0.9063 0.1939
vn 0.3945 0.5905 -0.7041
vn 0.3945 0.5905 0.7041
vn 0.4630 0.6929 0.5528
vn 0.3110 0.4654 -0.8286
vn 0.5138 0.7689 0.3805
vn 0.2155 0.3225 -0.9217
vn 0.5450 0.8157 0.1939
vn 0.1116 0.1671 -0.9796
vn 0.5556 0.8315 -0.0000
vn 0.1116 0.1671 0.9796
vn 0.5450 0.8157 -0.1939
vn 0.2155 0.3225 0.9217
vn 0.5138 0.7689 -0.3805
vn 0.3110 0.4654 0.8286
vn 0.4630 0.6929 -0.5528
vn 0.1421 0.1421 0.9796
vn 0.1421 0.1421 -0.9796
vn 0.6937 0.6937 -0.1939
vn 0.2743 0.2743 0.9217
vn 0.6539 0.6539 -0.3805
vn 0.3958 0.3958 0.8286
vn 0.5893 0.5893 -0.5528
vn 0.5021 0.5021 0.7041
vn 0.5021 0.5021 -0.7041
vn 0.5893 0.5893 0.5528
vn 0.3958 0.3958 -0.8286
vn 0.6539 0.6539 0.3805
vn 0.2743 0.2743 -0.9217
vn 0.6937 0.6937 0.1939
vn 0.7071 0.7071 -0.0000
vn 0.6929 0.4630 0.5528
vn 0.4654 0.3110 -0.8286
vn 0.7689 0.5138 0.3805
vn 0.3225 0.2155 -0.9217
vn 0.8157 0.5450 0.1939
vn 0.1671 0.1116 -0.9796
vn 0.8315 0.5556 -0.0000
vn 0.1671 0.1116 0.9796
vn 0.8157 0.5450 -0.1939
vn 0.3225 0.2155 0.9217
vn 0.7689 0.5138 -0.3805
vn 0.4654 0.3110 0.8286
vn 0.6929 0.4630 -0.5528
vn 0.5905 0.3945 0.7041
vn 0.5905 0.3945 -0.7041
vn 0.9063 0.3754 -0.1939
vn 0.3584 0.1484 0.9217
vn 0.8544 0.3539 -0.3805
vn 0.5172 0.2142 0.8286
vn 0.7699 0.3189 -0.5528
vn 0.6561 0.2718 0.7041
vn 0.6561 0.2718 -0.7041
vn 0.7699 0.3189 0.5528
vn 0.5172 0.2142 -0.8286
vn 0.8544 0.3539 0.3805
vn 0.3584 0.1484 -0.9217
vn 0.9063 0.3754 0.1939
vn 0.1857 0.0769 -0.9796
vn 0.9239 0.3827 -0.0000
vn 0.1857 0.0769 0.9796
vn 0.6965 0.1385 -0.7041
vn 0.5490 0.1092 -0.8286
vn 0.8173 0.1626 0.5528
vn 0.9070 0.1804 0.3805
vn 0.3804 0.0757 -0.9217
vn 0.9622 0.1914 0.1939
vn 0.1971 0.0392 -0.9796
vn 0.9808 0.1951 -0.0000
vn 0.1971 0.0392 0.9796
vn 0.9622 0.1914 -0.1939
vn 0.3804 0.0757 0.9217
vn 0.9070 0.1804 -0.3805
vn 0.5490 0.1092 0.8286
vn 0.8173 0.1626 -0.5528
vn 0.6965 0.1385 0.7041
vn 0.3879 -0.0000 0.9217
vn 0.9810 -0.0000 -0.1939
vn 0.9248 -0.0000 -0.3805
vn 0.5598 -0.0000 0.8286
vn 0.8333 -0.0000 -0.5528
vn 0.7101 -0.0000 0.7041
vn 0.7101 -0.0000 -0.7041
vn 0.8333 -0.0000 0.5528
vn 0.5598 -0.0000 -0.8286
vn 0.9248 -0.0000 0.3805
vn 0.3879 -0.0000 -0.9217
vn 0.9810 -0.0000 0.1939
vn 0.2010 -0.0000 -0.9796
vn 1.0000 -0.0000 -0.0000
vn 0.2010 -0.0000 0.9796
vn 0.8173 -0.1626 0.5528
vn 0.9070 -0.1804 0.3805
vn 0.5490 -0.1092 -0.8286
vn 0.3804 -0.0757 -0.9217
vn 0.9622 -0.1914 0.1939
vn 0.1971 -0.0392 -0.9796
vn 0.9808 -0.1951 -0.0000
vn 0.1971 -0.0392 0.9796
vn 0.9622 -0.1914 -0.1939
vn 0.3804 -0.0757 0.9217
vn 0.9070 -0.1804 -0.3805
vn 0.5490 -0.1092 0.8286
vn 0.8173 -0.1626 -0.5528
vn 0.6965 -0.1385 0.7041
vn 0.6965 -0.1385 -0.7041
vn 0.9063 -0.3754 -0.1939
vn 0.8544 -0.3539 -0.3805
vn 0.5172 -0.2142 0.8286
vn 0.7699 -0.3189 -0.5528
vn 0.6561 -0.2718 0.7041
vn 0.6561 -0.2718 -0.7041
vn 0.7699 -0.3189 0.5528
vn 0.5172 -0.2142 -0.8286
vn 0.8544 -0.3539 0.3805
vn 0.3584 -0.1484 -0.9217
vn 0.9063 -0.3754 0.1939
vn 0.1857 -0.0769 -0.9796
vn 0.9239 -0.3827 -0.0000
vn 0.1857 -0.0769 0.9796
vn 0.3584 -0.1484 0.9217
vn 0.3225 -0.2155 -0.9217
vn 0.7689 -0.5138 0.3805
vn 0.8157 -0.5450 0.1939
vn 0.1671 -0.1116 -0.9796
vn 0.8315 -0.5556 -0.0000
vn 0.1671 -0.1116 0.9796
vn 0.8157 -0.5450 -0.1939
vn 0.3225 -0.2155 0.9217
vn 0.7689 -0.5138 -0.3805
vn 0.4654 -0.3110 0.8286
vn 0.6929 -0.4630 -0.5528
vn 0.5905 -0.3945 0.7041
vn 0.5905 -0.3945 -0.7041
vn 0.6929 -0.4630 0.5528
vn 0.4654 -0.3110 -0.8286
vn 0.6539 -0.6539 -0.3805
vn 0.5893 -0.5893 -0.5528
vn 0.5021 -0.5021 0.7041
vn 0.5021 -0.5021 -0.7041
vn 0.5893 -0.5893 0.5528
vn 0.3958 -0.3958 -0.8286
vn 0.6539 -0.6539 0.3805
vn 0.2743 -0.2743 -0.9217
vn 0.6937 -0.6937 0.1939
vn 0.1421 -0.1421 -0.9796
vn 0.7071 -0.7071 -0.0000
vn 0.1421 -0.1421 0.9796
vn 0.6937 -0.6937 -0.1939
vn 0.2743 -0.2743 0.9217
vn 0.3958 -0.3958 0.8286
vn 0.2155 -0.3225 -0.9217
vn 0.1116 -0.1671 -0.9796
vn 0.5450 -0.8157 0.1939
vn 0.5556 -0.8315 -0.0000
vn 0.1116 -0.1671 0.9796
vn 0.5450 -0.8157 -0.1939
vn 0.2155 -0.3225 0.9217
vn 0.5138 -0.7689 -0.3805
vn 0.3110 -0.4654 0.8286
vn 0.4630 -0.6929 -0.5528
vn 0.3945 -0.5905 0.7041
vn 0.3945 -0.5905 -0.7041
vn 0.4630 -0.6929 0.5528
vn 0.3110 -0.4654 -0.8286
vn 0.5138 -0.7689 0.3805
vn 0.2718 -0.6561 0.7041
vn 0.3189 -0.7699 -0.5528
vn 0.2718 -0.6561 -0.7041
vn 0.3189 -0.7699 0.5528
vn 0.2142 -0.5172 -0.8286
vn 0.3539 -0.8544 0.3805
vn 0.1484 -0.3584 -0.9217
vn 0.3754 -0.9063 0.1939
vn 0.0769 -0.1857 -0.9796
vn 0.3827 -0.9239 -0.0000
vn 0.0769 -0.1857 0.9796
vn 0.3754 -0.9063 -0.1939
vn 0.1484 -0.3584 0.9217
vn 0.3539 -0.8544 -0.3805
vn 0.2142 -0.5172 0.8286
vn 0.1914 -0.9622 0.1939
vn 0.1951 -0.9808 -0.0000
vn 0.0392 -0.1971 0.9796
vn 0.0392 -0.1971 -0.9796
vn 0.1914 -0.9622 -0.1939
vn 0.0757 -0.3804 0.9217
vn 0.1804 -0.9070 -0.3805
vn 0.1092 -0.5490 0.8286
vn 0.1626 -0.8173 -0.5528
vn 0.1385 -0.6965 0.7041
vn 0.1385 -0.6965 -0.7041
vn 0.1626 -0.8173 0.5528
vn 0.1092 -0.5490 -0.8286
vn 0.1804 -0.9070 0.3805
vn 0.0757 -0.3804 -0.9217
vn -0.0000 -0.8333 -0.5528
vn -0.0000 -0.7101 -0.7041
vn -0.0000 -0.8333 0.5528
vn -0.0000 -0.5598 -0.8286
vn -0.0000 -0.9248 0.3805
vn -0.0000 -0.3879 -0.9217
vn -0.0000 -0.9810 0.1939
vn -0.0000 -0.2010 -0.9796
vn -0.0000 -1.0000 -0.0000
vn -0.0000 -0.2010 0.9796
vn -0.0000 -0.9810 -0.1939
vn -0.0000 -0.3879 0.9217
vn -0.0000 -0.9248 -0.3805
vn -0.0000 -0.5598 0.8286
vn -0.0000 -0.7101 0.7041
vn -0.0392 -0.1971 0.9796
vn -0.0392 -0.1971 -0.9796
vn -0.1914 -0.9622 -0.1939
vn -0.0757 -0.3804 0.9217
vn -0.1804 -0.9070 -0.3805
vn -0.1092 -0.5490 0.8286
vn -0.1626 -0.8173 -0.5528
vn -0.1385 -0.6965 0.7041
vn -0.1385 -0.6965 -0.7041
vn -0.1626 -0.8173 0.5528
vn -0.1092 -0.5490 -0.8286
vn -0.1804 -0.9070 0.3805
vn -0.0757 -0.3804 -0.9217
vn -0.1914 -0.9622 0.1939
vn -0.1951 -0.9808 -0.0000
vn -0.3189 -0.7699 0.5528
vn -0.2718 -0.6561 -0.7041
vn -0.2142 -0.5172 -0.8286
vn -0.3539 -0.8544 0.3805
vn -0.1484 -0.3584 -0.9217
vn -0.3754 -0.9063 0.1939
vn -0.0769 -0.1857 -0.9796
vn -0.3827 -0.9239 -0.0000
vn -0.0769 -0.1857 0.9796
vn -0.3754 -0.9063 -0.1939
vn -0.1484 -0.3584 0.9217
vn -0.3539 -0.8544 -0.3805
vn -0.2142 -0.5172 0.8286
vn -0.3189 -0.7699 -0.5528
vn -0.2718 -0.6561 0.7041
vn -0.5450 -0.8157 -0.1939
vn -0.1116 -0.1671 0.9796
vn -0.2155 -0.3225 0.9217
vn -0.5138 -0.7689 -0.3805
vn -0.3110 -0.4654 0.8286
vn -0.4630 -0.6929 -0.5528
vn -0.3945 -0.5905 0.7041
vn -0.3945 -0.5905 -0.7041
vn -0.4630 -0.6929 0.5528
vn -0.3110 -0.4654 -0.8286
vn -0.5138 -0.7689 0.3805
vn -0.2155 -0.3225 -0.9217
vn -0.5450 -0.8157 0.1939
vn -0.1116 -0.1671 -0.9796
vn -0.5556 -0.8315 -0.0000
vn -0.5021 -0.5021 -0.7041
vn -0.3958 -0.3958 -0.8286
vn -0.6539 -0.6539 0.3805
vn -0.2743 -0.2743 -0.9217
vn -0.6937 -0.6937 0.1939
vn -0.1421 -0.1421 -0.9796
vn -0.7071 -0.7071 -0.0000
vn -0.1421 -0.1421 0.9796
vn -0.6937 -0.6937 -0.1939
vn -0.2743 -0.2743 0.9217
vn -0.6539 -0.6539 -0.3805
vn -0.3958 -0.3958 0.8286
vn -0.5893 -0.5893 -0.5528
vn -0.5021 -0.5021 0.7041
vn -0.5893 -0.5893 0.5528
vn -0.7689 -0.5138 -0.3805
vn -0.3225 -0.2155 0.9217
vn -0.4654 -0.3110 0.8286
vn -0.6929 -0.4630 -0.5528
vn -0.5905 -0.3945 0.7041
vn -0.5905 -0.3945 -0.7041
vn -0.6929 -0.4630 0.5528
vn -0.4654 -0.3110 -0.8286
vn -0.7689 -0.5138 0.3805
vn -0.3225 -0.2155 -0.9217
vn -0.8157 -0.5450 0.1939
vn -0.1671 -0.1116 -0.9796
vn -0.8315 -0.5556 -0.0000
vn -0.1671 -0.1116 0.9796
vn -0.8157 -0.5450 -0.1939
vn -0.5172 -0.2142 -0.8286
vn -0.3584 -0.1484 -0.9217
vn -0.8544 -0.3539 0.3805
vn -0.9063 -0.3754 0.1939
vn -0.1857 -0.0769 -0.9796
vn -0.9239 -0.3827 -0.0000
vn -0.1857 -0.0769 0.9796
vn -0.9063 -0.3754 -0.1939
vn -0.3584 -0.1484 0.9217
vn -0.8544 -0.3539 -0.3805
vn -0.5172 -0.2142 0.8286
vn -0.7699 -0.3189 -0.5528
vn -0.6561 -0.2718 0.7041
vn -0.6561 -0.2718 -0.7041
vn -0.7699 -0.3189 0.5528
vn -0.3804 -0.0757 0.9217
vn -0.5490 -0.1092 0.8286
vn -0.9070 -0.1804 -0.3805
vn -0.8173 -0.1626 -0.5528
vn -0.6965 -0.1385 0.7041
vn -0.6965 -0.1385 -0.7041
vn -0.8173 -0.1626 0.5528
vn -0.5490 -0.1092 -0.8286
vn -0.9070 -0.1804 0.3805
vn -0.3804 -0.0757 -0.9217
vn -0.9622 -0.1914 0.1939
vn -0.1971 -0.0392 -0.9796
vn -0.9808 -0.1951 -0.0000
vn -0.1971 -0.0392 0.9796
vn -0.9622 -0.1914 -0.1939
vn -0.9248 -0.0000 0.3805
vn -0.9810 -0.0000 0.1939
vn -0.3879 -0.0000 -0.9217
vn -0.2010 -0.0000 -0.9796
vn -1.0000 -0.0000 -0.0000
vn -0.2010 -0.0000 0.9796
vn -0.9810 -0.0000 -0.1939
vn -0.3879 -0.0000 0.9217
vn -0.9248 -0.0000 -0.3805
vn -0.5598 -0.0000 0.8286
vn -0.8333 -0.0000 -0.5528
vn -0.7101 -0.0000 0.7041
vn -0.7101 -0.0000 -0.7041
vn -0.8333 -0.0000 0.5528
vn -0.5598 -0.0000 -0.8286
vn -0.8173 0.1626 -0.5528
vn -0.5490 0.1092 0.8286
vn -0.6965 0.1385 0.7041
vn -0.6965 0.1385 -0.7041
vn -0.8173 0.1626 0.5528
vn -0.5490 0.1092 -0.8286
vn -0.9070 0.1804 0.3805
vn -0.3804 0.0757 -0.9217
vn -0.9622 0.1914 0.1939
vn -0.1971 0.0392 -0.9796
vn -0.9808 0.1951 -0.0000
vn -0.1971 0.0392 0.9796
vn -0.9622 0.1914 -0.1939
vn -0.3804 0.0757 0.9217
vn -0.9070 0.1804 -0.3805
vn -0.1857 0.0769 -0.9796
vn -0.9063 0.3754 0.1939
vn -0.9239 0.3827 -0.0000
vn -0.1857 0.0769 0.9796
vn -0.9063 0.3754 -0.1939
vn -0.3584 0.1484 0.9217
vn -0.8544 0.3539 -0.3805
vn -0.5172 0.2142 0.8286
vn -0.7699 0.3189 -0.5528
vn -0.6561 0.2718 0.7041
vn -0.6561 0.2718 -0.7041
vn -0.7699 0.3189 0.5528
vn -0.5172 0.2142 -0.8286
vn -0.8544 0.3539 0.3805
vn -0.3584 0.1484 -0.9217
vn -0.4654 0.3110 0.8286
vn -0.5905 0.3945 0.7041
vn -0.5905 0.3945 -0.7041
vn -0.6929 0.4630 0.5528
vn -0.4654 0.3110 -0.8286
vn -0.7689 0.5138 0.3805
vn -0.3225 0.2155 -0.9217
vn -0.8157 0.5450 0.1939
vn -0.1671 0.1116 -0.9796
vn -0.8315 0.5556 -0.0000
vn -0.1671 0.1116 0.9796
vn -0.8157 0.5450 -0.1939
vn -0.3225 0.2155 0.9217
vn -0.7689 0.5138 -0.3805
vn -0.6929 0.4630 -0.5528
vn -0.6937 0.6937 0.1939
vn -0.7071 0.7071 -0.0000
vn -0.1421 0.1421 0.9796
vn -0.1421 0.1421 -0.9796
vn -0.6937 0.6937 -0.1939
vn -0.2743 0.2743 0.9217
vn -0.6539 0.6539 -0.3805
vn -0.3958 0.3958 0.8286
vn -0.5893 0.5893 -0.5528
vn -0.5021 0.5021 0.7041
vn -0.5021 0.5021 -0.7041
vn -0.5893 0.5893 0.5528
vn -0.3958 0.3958 -0.8286
vn -0.6539 0.6539 0.3805
vn -0.2743 0.2743 -0.9217
vn -0.4630 0.6929 -0.5528
vn -0.3945 0.5905 -0.7041
vn -0.4630 0.6929 0.5528
vn -0.3110 0.4654 -0.8286
vn -0.5138 0.7689 0.3805
vn -0.2155 0.3225 -0.9217
vn -0.5450 0.8157 0.1939
vn -0.1116 0.1671 -0.9796
vn -0.5556 0.8315 -0.0000
vn -0.1116 0.1671 0.9796
vn -0.5450 0.8157 -0.1939
vn -0.2155 0.3225 0.9217
vn -0.5138 0.7689 -0.3805
vn -0.3110 0.4654 0.8286
vn -0.3945 0.5905 0.7041
vn -0.0769 0.1857 -0.9796
vn -0.3754 0.9063 -0.1939
vn -0.1484 0.3584 0.9217
vn -0.3539 0.8544 -0.3805
vn -0.2142 0.5172 0.8286
vn -0.3189 0.7699 -0.5528
vn -0.2718 0.6561 0.7041
vn -0.2718 0.6561 -0.7041
vn -0.3189 0.7699 0.5528
vn -0.2142 0.5172 -0.8286
vn -0.3539 0.8544 0.3805
vn -0.1484 0.3584 -0.9217
vn -0.3754 0.9063 0.1939
vn -0.3827 0.9239 -0.0000
vn -0.0769 0.1857 0.9796
vn -0.1092 0.5490 -0.8286
vn -0.1804 0.9070 0.3805
vn -0.0757 0.3804 -0.9217
vn -0.1914 0.9622 0.1939
vn -0.0392 0.1971 -0.9796
vn -0.1951 0.9808 -0.0000
vn -0.0392 0.1971 0.9796
vn -0.1914 0.9622 -0.1939
vn -0.0757 0.3804 0.9217
vn -0.1804 0.9070 -0.3805
vn -0.1092 0.5490 0.8286
vn -0.1626 0.8173 -0.5528
vn -0.1385 0.6965 0.7041
vn -0.1385 0.6965 -0.7041
vn -0.1626 0.8173 0.5528
vt 0.750000 0.437500
vt 0.718750 0.500000
vt 0.718750 0.437500
vt 0.750000 0.875000
vt 0.718750 0.937500
vt 0.718750 0.875000
vt 0.718750 0.375000
vt 0.750000 0.375000
vt 0.718750 0.812500
vt 0.750000 0.812500
vt 0.750000 0.312500
vt 0.718750 0.312500
vt 0.750000 0.750000
vt 0.718750 0.750000
vt 0.750000 0.250000
vt 0.718750 0.250000
vt 0.718750 0.687500
vt 0.750000 0.687500
vt 0.718750 0.187500
vt 0.750000 0.187500
vt 0.718750 0.625000
vt 0.750000 0.625000
vt 0.750000 0.125000
vt 0.718750 0.125000
vt 0.750000 0.562500
vt 0.718750 0.562500
vt 0.718750 0.062500
vt 0.750000 0.062500
vt 0.750000 0.500000
vt 0.750000 0.937500
vt 0.734375 1.000000
vt 0.734375 0.000000
vt 0.687500 0.062500
vt 0.687500 0.500000
vt 0.703125 1.000000
vt 0.687500 0.937500
vt 0.703125 0.000000
vt 0.687500 0.437500
vt 0.687500 0.875000
vt 0.687500 0.375000
vt 0.687500 0.812500
vt 0.687500 0.312500
vt 0.687500 0.750000
vt 0.687500 0.250000
vt 0.687500 0.687500
vt 0.687500 0.187500
vt 0.687500 0.625000
vt 0.687500 0.125000
vt 0.687500 0.562500
vt 0.656250 0.250000
vt 0.656250 0.750000
vt 0.656250 0.687500
vt 0.656250 0.187500
vt 0.656250 0.625000
vt 0.656250 0.125000
vt 0.656250 0.562500
vt 0.656250 0.062500
vt 0.656250 0.500000
vt 0.671875 1.000000
vt 0.656250 0.937500
vt 0.671875 0.000000
vt 0.656250 0.437500
vt 0.656250 0.875000
vt 0.656250 0.375000
vt 0.656250 0.812500
vt 0.656250 0.312500
vt 0.640625 1.000000
vt 0.625000 0.937500
vt 0.640625 0.000000
vt 0.625000 0.062500
vt 0.625000 0.437500
vt 0.625000 0.875000
vt 0.625000 0.375000
vt 0.625000 0.812500
vt 0.625000 0.312500
vt 0.625000 0.750000
vt 0.625000 0.250000
vt 0.625000 0.687500
vt 0.625000 0.187500
vt 0.625000 0.625000
vt 0.625000 0.125000
vt 0.625000 0.562500
vt 0.625000 0.500000
vt 0.593750 0.687500
vt 0.593750 0.187500
vt 0.593750 0.625000
vt 0.593750 0.125000
vt 0.593750 0.562500
vt 0.593750 0.062500
vt 0.593750 0.500000
vt 0.609375 1.000000
vt 0.593750 0.937500
vt 0.609375 0.000000
vt 0.593750 0.437500
vt 0.593750 0.875000
vt 0.593750 0.375000
vt 0.593750 0.812500
vt 0.593750 0.312500
vt 0.593750 0.750000
vt 0.593750 0.250000
vt 0.562500 0.437500
vt 0.562500 0.875000
vt 0.562500 0.375000
vt 0.562500 0.812500
vt 0.562500 0.312500
vt 0.562500 0.750000
vt 0.562500 0.250000
vt 0.562500 0.687500
vt 0.562500 0.187500
vt 0.562500 0.625000
vt 0.562500 0.125000
vt 0.562500 0.562500
vt 0.562500 0.062500
vt 0.562500 0.500000
vt 0.578125 1.000000
vt 0.562500 0.937500
vt 0.578125 0.000000
vt 0.531250 0.250000
vt 0.531250 0.187500
vt 0.531250 0.687500
vt 0.531250 0.625000
vt 0.531250 0.125000
vt 0.531250 0.562500
vt 0.531250 0.062500
vt 0.531250 0.500000
vt 0.546875 1.000000
vt 0.531250 0.937500
vt 0.546875 0.000000
vt 0.531250 0.437500
vt 0.531250 0.875000
vt 0.531250 0.375000
vt 0.531250 0.812500
vt 0.531250 0.312500
vt 0.531250 0.750000
vt 0.500000 0.875000
vt 0.500000 0.437500
vt 0.500000 0.375000
vt 0.500000 0.812500
vt 0.500000 0.312500
vt 0.500000 0.750000
vt 0.500000 0.250000
vt 0.500000 0.687500
vt 0.500000 0.187500
vt 0.500000 0.625000
vt 0.500000 0.125000
vt 0.500000 0.562500
vt 0.500000 0.062500
vt 0.500000 0.500000
vt 0.515625 1.000000
vt 0.500000 0.937500
vt 0.515625 0.000000
vt 0.468750 0.687500
vt 0.468750 0.625000
vt 0.468750 0.187500
vt 0.468750 0.125000
vt 0.468750 0.562500
vt 0.468750 0.062500
vt 0.468750 0.500000
vt 0.484375 1.000000
vt 0.468750 0.937500
vt 0.484375 0.000000
vt 0.468750 0.437500
vt 0.468750 0.875000
vt 0.468750 0.375000
vt 0.468750 0.812500
vt 0.468750 0.312500
vt 0.468750 0.750000
vt 0.468750 0.250000
vt 0.437500 0.437500
vt 0.437500 0.375000
vt 0.437500 0.812500
vt 0.437500 0.312500
vt 0.437500 0.750000
vt 0.437500 0.250000
vt 0.437500 0.687500
vt 0.437500 0.187500
vt 0.437500 0.625000
vt 0.437500 0.125000
vt 0.437500 0.562500
vt 0.437500 0.062500
vt 0.437500 0.500000
vt 0.453125 1.000000
vt 0.437500 0.937500
vt 0.453125 0.000000
vt 0.437500 0.875000
vt 0.406250 0.125000
vt 0.406250 0.625000
vt 0.406250 0.562500
vt 0.406250 0.062500
vt 0.406250 0.500000
vt 0.421875 1.000000
vt 0.406250 0.937500
vt 0.421875 0.000000
vt 0.406250 0.437500
vt 0.406250 0.875000
vt 0.406250 0.375000
vt 0.406250 0.812500
vt 0.406250 0.312500
vt 0.406250 0.750000
vt 0.406250 0.250000
vt 0.406250 0.687500
vt 0.406250 0.187500
vt 0.375000 0.375000
vt 0.375000 0.312500
vt 0.375000 0.750000
vt 0.375000 0.250000
vt 0.375000 0.687500
vt 0.375000 0.187500
vt 0.375000 0.625000
vt 0.375000 0.125000
vt 0.375000 0.562500
vt 0.375000 0.062500
vt 0.375000 0.500000
vt 0.390625 1.000000
vt 0.375000 0.937500
vt 0.390625 0.000000
vt 0.375000 0.437500
vt 0.375000 0.875000
vt 0.375000 0.812500
vt 0.343750 0.125000
vt 0.343750 0.062500
vt 0.343750 0.562500
vt 0.343750 0.500000
vt 0.359375 1.000000
vt 0.343750 0.937500
vt 0.359375 0.000000
vt 0.343750 0.437500
vt 0.343750 0.875000
vt 0.343750 0.375000
vt 0.343750 0.812500
vt 0.343750 0.312500
vt 0.343750 0.750000
vt 0.343750 0.250000
vt 0.343750 0.687500
vt 0.343750 0.187500
vt 0.343750 0.625000
vt 0.312500 0.750000
vt 0.312500 0.312500
vt 0.312500 0.250000
vt 0.312500 0.687500
vt 0.312500 0.187500
vt 0.312500 0.625000
vt 0.312500 0.125000
vt 0.312500 0.562500
vt 0.312500 0.062500
vt 0.312500 0.500000
vt 0.328125 1.000000
vt 0.312500 0.937500
vt 0.328125 0.000000
vt 0.312500 0.437500
vt 0.312500 0.875000
vt 0.312500 0.375000
vt 0.312500 0.812500
vt 0.281250 0.562500
vt 0.281250 0.500000
vt 0.296875 1.000000
vt 0.281250 0.937500
vt 0.296875 0.000000
vt 0.281250 0.062500
vt 0.281250 0.437500
vt 0.281250 0.875000
vt 0.281250 0.375000
vt 0.281250 0.812500
vt 0.281250 0.312500
vt 0.281250 0.750000
vt 0.281250 0.250000
vt 0.281250 0.687500
vt 0.281250 0.187500
vt 0.281250 0.625000
vt 0.281250 0.125000
vt 0.250000 0.312500
vt 0.250000 0.250000
vt 0.250000 0.687500
vt 0.250000 0.187500
vt 0.250000 0.625000
vt 0.250000 0.125000
vt 0.250000 0.562500
vt 0.250000 0.062500
vt 0.250000 0.500000
vt 0.265625 1.000000
vt 0.250000 0.937500
vt 0.265625 0.000000
vt 0.250000 0.437500
vt 0.250000 0.875000
vt 0.250000 0.375000
vt 0.250000 0.812500
vt 0.250000 0.750000
vt 0.234375 1.000000
vt 0.218750 0.937500
vt 0.234375 0.000000
vt 0.218750 0.062500
vt 0.218750 0.437500
vt 0.218750 0.875000
vt 0.218750 0.375000
vt 0.218750 0.812500
vt 0.218750 0.312500
vt 0.218750 0.750000
vt 0.218750 0.250000
vt 0.218750 0.687500
vt 0.218750 0.187500
vt 0.218750 0.625000
vt 0.218750 0.125000
vt 0.218750 0.562500
vt 0.218750 0.500000
vt 0.187500 0.687500
vt 0.187500 0.250000
vt 0.187500 0.187500
vt 0.187500 0.625000
vt 0.187500 0.125000
vt 0.187500 0.562500
vt 0.187500 0.062500
vt 0.187500 0.500000
vt 0.203125 1.000000
vt 0.187500 0.937500
vt 0.203125 0.000000
vt 0.187500 0.437500
vt 0.187500 0.875000
vt 0.187500 0.375000
vt 0.187500 0.812500
vt 0.187500 0.312500
vt 0.187500 0.750000
vt 0.156250 0.437500
vt 0.156250 0.937500
vt 0.156250 0.875000
vt 0.156250 0.375000
vt 0.156250 0.812500
vt 0.156250 0.312500
vt 0.156250 0.750000
vt 0.156250 0.250000
vt 0.156250 0.687500
vt 0.156250 0.187500
vt 0.156250 0.625000
vt 0.156250 0.125000
vt 0.156250 0.562500
vt 0.156250 0.062500
vt 0.156250 0.500000
vt 0.171875 1.000000
vt 0.171875 0.000000
vt 0.125000 0.250000
vt 0.125000 0.187500
vt 0.125000 0.625000
vt 0.125000 0.125000
vt 0.125000 0.562500
vt 0.125000 0.062500
vt 0.125000 0.500000
vt 0.140625 1.000000
vt 0.125000 0.937500
vt 0.140625 0.000000
vt 0.125000 0.437500
vt 0.125000 0.875000
vt 0.125000 0.375000
vt 0.125000 0.812500
vt 0.125000 0.312500
vt 0.125000 0.750000
vt 0.125000 0.687500
vt 0.093750 0.375000
vt 0.093750 0.875000
vt 0.093750 0.812500
vt 0.093750 0.312500
vt 0.093750 0.750000
vt 0.093750 0.250000
vt 0.093750 0.687500
vt 0.093750 0.187500
vt 0.093750 0.625000
vt 0.093750 0.125000
vt 0.093750 0.562500
vt 0.093750 0.062500
vt 0.093750 0.500000
vt 0.109375 1.000000
vt 0.093750 0.937500
vt 0.109375 0.000000
vt 0.093750 0.437500
vt 0.062500 0.187500
vt 0.062500 0.125000
vt 0.062500 0.625000
vt 0.062500 0.562500
vt 0.062500 0.062500
vt 0.062500 0.500000
vt 0.078125 1.000000
vt 0.062500 0.937500
vt 0.078125 0.000000
vt 0.062500 0.437500
vt 0.062500 0.875000
vt 0.062500 0.375000
vt 0.062500 0.812500
vt 0.062500 0.312500
vt 0.062500 0.750000
vt 0.062500 0.250000
vt 0.062500 0.687500
vt 0.031250 0.875000
vt 0.031250 0.812500
vt 0.031250 0.375000
vt 0.031250 0.312500
vt 0.031250 0.750000
vt 0.031250 0.250000
vt 0.031250 0.687500
vt 0.031250 0.187500
vt 0.031250 0.625000
vt 0.031250 0.125000
vt 0.031250 0.562500
vt 0.031250 0.062500
vt 0.031250 0.500000
vt 0.046875 1.000000
vt 0.031250 0.937500
vt 0.046875 0.000000
vt 0.031250 0.437500
vt 0.000000 0.625000
vt 0.000000 0.562500
vt 0.000000 0.125000
vt 0.000000 0.062500
vt 0.000000 0.500000
vt 0.015625 1.000000
vt 0.000000 0.937500
vt 0.015625 0.000000
vt 0.000000 0.437500
vt 0.000000 0.875000
vt 0.000000 0.375000
vt 0.000000 0.812500
vt 0.000000 0.312500
vt 0.000000 0.750000
vt 0.000000 0.250000
vt 0.000000 0.687500
vt 0.000000 0.187500
vt 1.000000 0.375000
vt 0.968750 0.312500
vt 1.000000 0.312500
vt 1.000000 0.750000
vt 0.968750 0.812500
vt 0.968750 0.750000
vt 0.968750 0.250000
vt 1.000000 0.250000
vt 1.000000 0.687500
vt 0.968750 0.687500
vt 0.968750 0.187500
vt 1.000000 0.187500
vt 1.000000 0.625000
vt 0.968750 0.625000
vt 1.000000 0.125000
vt 0.968750 0.125000
vt 1.000000 0.562500
vt 0.968750 0.562500
vt 0.968750 0.062500
vt 1.000000 0.062500
vt 1.000000 0.500000
vt 0.968750 0.500000
vt 1.000000 0.937500
vt 0.984375 1.000000
vt 0.968750 0.937500
vt 0.984375 0.000000
vt 0.968750 0.437500
vt 1.000000 0.437500
vt 1.000000 0.875000
vt 0.968750 0.875000
vt 0.968750 0.375000
vt 1.000000 0.812500
vt 0.937500 0.062500
vt 0.937500 0.562500
vt 0.937500 0.500000
vt 0.953125 1.000000
vt 0.937500 0.937500
vt 0.953125 0.000000
vt 0.937500 0.437500
vt 0.937500 0.875000
vt 0.937500 0.375000
vt 0.937500 0.812500
vt 0.937500 0.312500
vt 0.937500 0.750000
vt 0.937500 0.250000
vt 0.937500 0.687500
vt 0.937500 0.187500
vt 0.937500 0.625000
vt 0.937500 0.125000
vt 0.906250 0.812500
vt 0.906250 0.750000
vt 0.906250 0.250000
vt 0.906250 0.687500
vt 0.906250 0.187500
vt 0.906250 0.625000
vt 0.906250 0.125000
vt 0.906250 0.562500
vt 0.906250 0.062500
vt 0.906250 0.500000
vt 0.921875 1.000000
vt 0.906250 0.937500
vt 0.921875 0.000000
vt 0.906250 0.437500
vt 0.906250 0.875000
vt 0.906250 0.375000
vt 0.906250 0.312500
vt 0.875000 0.562500
vt 0.875000 0.500000
vt 0.890625 1.000000
vt 0.875000 0.937500
vt 0.890625 0.000000
vt 0.875000 0.062500
vt 0.875000 0.437500
vt 0.875000 0.875000
vt 0.875000 0.375000
vt 0.875000 0.812500
vt 0.875000 0.312500
vt 0.875000 0.750000
vt 0.875000 0.250000
vt 0.875000 0.687500
vt 0.875000 0.187500
vt 0.875000 0.625000
vt 0.875000 0.125000
vt 0.843750 0.312500
vt 0.843750 0.250000
vt 0.843750 0.687500
vt 0.843750 0.187500
vt 0.843750 0.625000
vt 0.843750 0.125000
vt 0.843750 0.562500
vt 0.843750 0.062500
vt 0.843750 0.500000
vt 0.859375 1.000000
vt 0.843750 0.937500
vt 0.859375 0.000000
vt 0.843750 0.437500
vt 0.843750 0.875000
vt 0.843750 0.375000
vt 0.843750 0.812500
vt 0.843750 0.750000
vt 0.828125 0.000000
vt 0.812500 0.062500
vt 0.812500 0.437500
vt 0.812500 0.875000
vt 0.812500 0.375000
vt 0.812500 0.812500
vt 0.812500 0.312500
vt 0.812500 0.750000
vt 0.812500 0.250000
vt 0.812500 0.687500
vt 0.812500 0.187500
vt 0.812500 0.625000
vt 0.812500 0.125000
vt 0.812500 0.562500
vt 0.812500 0.500000
vt 0.828125 1.000000
vt 0.812500 0.937500
vt 0.781250 0.187500
vt 0.781250 0.625000
vt 0.781250 0.125000
vt 0.781250 0.562500
vt 0.781250 0.062500
vt 0.781250 0.500000
vt 0.796875 1.000000
vt 0.781250 0.937500
vt 0.796875 0.000000
vt 0.781250 0.437500
vt 0.781250 0.875000
vt 0.781250 0.375000
vt 0.781250 0.812500
vt 0.781250 0.312500
vt 0.781250 0.750000
vt 0.781250 0.250000
vt 0.781250 0.687500
vt 0.765625 1.000000
vt 0.765625 0.000000
s 1
f 5/1/1 14/2/2 15/3/3
f 475/4/4 7/5/5 8/6/6
f 5/1/1 16/7/7 478/8/8
f 475/4/4 9/9/9 1/10/10
f 6/11/11 16/7/7 17/12/12
f 476/13/13 9/9/9 10/14/14
f 479/15/15 17/12/12 18/16/16
f 476/13/13 11/17/17 2/18/18
f 479/15/15 19/19/19 480/20/20
f 2/18/18 12/21/21 477/22/22
f 481/23/23 19/19/19 20/24/24
f 3/25/25 12/21/21 13/26/26
f 481/23/23 21/27/27 482/28/28
f 3/25/25 14/2/2 4/29/29
f 474/30/30 82/31/31 7/5/5
f 308/32/32 482/28/28 21/27/27
f 20/24/24 36/33/33 21/27/27
f 13/26/26 29/34/34 14/2/2
f 7/5/5 82/35/31 22/36/35
f 308/37/32 21/27/27 36/33/33
f 15/3/3 29/34/34 30/38/36
f 8/6/6 22/36/35 23/39/37
f 16/7/7 30/38/36 31/40/38
f 8/6/6 24/41/39 9/9/9
f 17/12/12 31/40/38 32/42/40
f 9/9/9 25/43/41 10/14/14
f 17/12/12 33/44/42 18/16/16
f 11/17/17 25/43/41 26/45/43
f 19/19/19 33/44/42 34/46/44
f 11/17/17 27/47/45 12/21/21
f 19/19/19 35/48/46 20/24/24
f 12/21/21 28/49/47 13/26/26
f 32/42/40 48/50/48 33/44/42
f 26/45/43 40/51/49 41/52/50
f 34/46/44 48/50/48 49/53/51
f 26/45/43 42/54/52 27/47/45
f 34/46/44 50/55/53 35/48/46
f 28/49/47 42/54/52 43/56/54
f 35/48/46 51/57/55 36/33/33
f 29/34/34 43/56/54 44/58/56
f 22/36/35 82/59/31 37/60/57
f 308/61/32 36/33/33 51/57/55
f 29/34/34 45/62/58 30/38/36
f 23/39/37 37/60/57 38/63/59
f 30/38/36 46/64/60 31/40/38
f 24/41/39 38/63/59 39/65/61
f 32/42/40 46/64/60 47/66/62
f 24/41/39 40/51/49 25/43/41
f 37/60/57 82/67/31 52/68/63
f 308/69/32 51/57/55 66/70/64
f 44/58/56 60/71/65 45/62/58
f 37/60/57 53/72/66 38/63/59
f 45/62/58 61/73/67 46/64/60
f 38/63/59 54/74/68 39/65/61
f 47/66/62 61/73/67 62/75/69
f 39/65/61 55/76/70 40/51/49
f 47/66/62 63/77/71 48/50/48
f 41/52/50 55/76/70 56/78/72
f 49/53/51 63/77/71 64/79/73
f 41/52/50 57/80/74 42/54/52
f 50/55/53 64/79/73 65/81/75
f 43/56/54 57/80/74 58/82/76
f 51/57/55 65/81/75 66/70/64
f 44/58/56 58/82/76 59/83/77
f 55/76/70 71/84/78 56/78/72
f 63/77/71 79/85/79 64/79/73
f 57/80/74 71/84/78 72/86/80
f 64/79/73 80/87/81 65/81/75
f 57/80/74 73/88/82 58/82/76
f 65/81/75 81/89/83 66/70/64
f 59/83/77 73/88/82 74/90/84
f 52/68/63 82/91/31 67/92/85
f 308/93/32 66/70/64 81/89/83
f 59/83/77 75/94/86 60/71/65
f 53/72/66 67/92/85 68/95/87
f 61/73/67 75/94/86 76/96/88
f 54/74/68 68/95/87 69/97/89
f 61/73/67 77/98/90 62/75/69
f 55/76/70 69/97/89 70/99/91
f 63/77/71 77/98/90 78/100/92
f 74/90/84 91/101/93 75/94/86
f 67/92/85 84/102/94 68/95/87
f 76/96/88 91/101/93 92/103/95
f 68/95/87 85/104/96 69/97/89
f 76/96/88 93/105/97 77/98/90
f 69/97/89 86/106/98 70/99/91
f 78/100/92 93/105/97 94/107/99
f 70/99/91 87/108/100 71/84/78
f 79/85/79 94/107/99 95/109/101
f 72/86/80 87/108/100 88/110/102
f 80/87/81 95/109/101 96/111/103
f 72/86/80 89/112/104 73/88/82
f 81/89/83 96/111/103 97/113/105
f 74/90/84 89/112/104 90/114/106
f 67/92/85 82/115/31 83/116/107
f 308/117/32 81/89/83 97/113/105
f 95/109/101 109/118/108 110/119/109
f 88/110/102 102/120/110 103/121/111
f 95/109/101 111/122/112 96/111/103
f 89/112/104 103/121/111 104/123/113
f 97/113/105 111/122/112 112/124/114
f 90/114/106 104/123/113 105/125/115
f 83/116/107 82/126/31 98/127/116
f 308/128/32 97/113/105 112/124/114
f 90/114/106 106/129/117 91/101/93
f 83/116/107 99/130/118 84/102/94
f 91/101/93 107/131/119 92/103/95
f 85/104/96 99/130/118 100/132/120
f 92/103/95 108/133/121 93/105/97
f 85/104/96 101/134/122 86/106/98
f 94/107/99 108/133/121 109/118/108
f 86/106/98 102/120/110 87/108/100
f 98/127/116 114/135/123 99/130/118
f 107/131/119 121/136/124 122/137/125
f 100/132/120 114/135/123 115/138/126
f 108/133/121 122/137/125 123/139/127
f 100/132/120 116/140/128 101/134/122
f 109/118/108 123/139/127 124/141/129
f 101/134/122 117/142/130 102/120/110
f 110/119/109 124/141/129 125/143/131
f 102/120/110 118/144/132 103/121/111
f 110/119/109 126/145/133 111/122/112
f 103/121/111 119/146/134 104/123/113
f 112/124/114 126/145/133 127/147/135
f 105/125/115 119/146/134 120/148/136
f 98/127/116 82/149/31 113/150/137
f 308/151/32 112/124/114 127/147/135
f 105/125/115 121/136/124 106/129/117
f 118/144/132 132/152/138 133/153/139
f 126/145/133 140/154/140 141/155/141
f 119/146/134 133/153/139 134/156/142
f 126/145/133 142/157/143 127/147/135
f 119/146/134 135/158/144 120/148/136
f 113/150/137 82/159/31 128/160/145
f 308/161/32 127/147/135 142/157/143
f 121/136/124 135/158/144 136/162/146
f 114/135/123 128/160/145 129/163/147
f 121/136/124 137/164/148 122/137/125
f 114/135/123 130/165/149 115/138/126
f 122/137/125 138/166/150 123/139/127
f 116/140/128 130/165/149 131/167/151
f 123/139/127 139/168/152 124/141/129
f 117/142/130 131/167/151 132/152/138
f 124/141/129 140/154/140 125/143/131
f 137/164/148 151/169/153 152/170/154
f 129/163/147 145/171/155 130/165/149
f 138/166/150 152/170/154 153/172/156
f 130/165/149 146/173/157 131/167/151
f 138/166/150 154/174/158 139/168/152
f 132/152/138 146/173/157 147/175/159
f 140/154/140 154/174/158 155/176/160
f 132/152/138 148/177/161 133/153/139
f 140/154/140 156/178/162 141/155/141
f 133/153/139 149/179/163 134/156/142
f 141/155/141 157/180/164 142/157/143
f 134/156/142 150/181/165 135/158/144
f 128/160/145 82/182/31 143/183/166
f 308/184/32 142/157/143 157/180/164
f 136/162/146 150/181/165 151/169/153
f 129/163/147 143/183/166 144/185/167
f 155/176/160 171/186/168 156/178/162
f 149/179/163 163/187/169 164/188/170
f 156/178/162 172/189/171 157/180/164
f 150/181/165 164/188/170 165/190/172
f 143/183/166 82/191/31 158/192/173
f 308/193/32 157/180/164 172/189/171
f 150/181/165 166/194/174 151/169/153
f 144/185/167 158/192/173 159/195/175
f 151/169/153 167/196/176 152/170/154
f 145/171/155 159/195/175 160/197/177
f 153/172/156 167/196/176 168/198/178
f 145/171/155 161/199/179 146/173/157
f 153/172/156 169/200/180 154/174/158
f 147/175/159 161/199/179 162/201/181
f 155/176/160 169/200/180 170/202/182
f 147/175/159 163/187/169 148/177/161
f 168/198/178 182/203/183 183/204/184
f 160/197/177 176/205/185 161/199/179
f 168/198/178 184/206/186 169/200/180
f 162/201/181 176/205/185 177/207/187
f 170/202/182 184/206/186 185/208/188
f 162/201/181 178/209/189 163/187/169
f 171/186/168 185/208/188 186/210/190
f 164/188/170 178/209/189 179/211/191
f 172/189/171 186/210/190 187/212/192
f 165/190/172 179/211/191 180/213/193
f 158/192/173 82/214/31 173/215/194
f 308/216/32 172/189/171 187/212/192
f 165/190/172 181/217/195 166/194/174
f 158/192/173 174/218/196 159/195/175
f 166/194/174 182/203/183 167/196/176
f 159/195/175 175/219/197 160/197/177
f 187/212/192 201/220/198 202/221/199
f 180/213/193 194/222/200 195/223/201
f 173/215/194 82/224/31 188/225/202
f 308/226/32 187/212/192 202/221/199
f 180/213/193 196/227/203 181/217/195
f 173/215/194 189/228/204 174/218/196
f 182/203/183 196/227/203 197/229/205
f 175/219/197 189/228/204 190/230/206
f 182/203/183 198/231/207 183/204/184
f 176/205/185 190/230/206 191/232/208
f 184/206/186 198/231/207 199/233/209
f 176/205/185 192/234/210 177/207/187
f 184/206/186 200/235/211 185/208/188
f 178/209/189 192/234/210 193/236/212
f 185/208/188 201/220/198 186/210/190
f 178/209/189 194/222/200 179/211/191
f 190/230/206 206/237/213 191/232/208
f 199/233/209 213/238/214 214/239/215
f 191/232/208 207/240/216 192/234/210
f 200/235/211 214/239/215 215/241/217
f 192/234/210 208/242/218 193/236/212
f 201/220/198 215/241/217 216/243/219
f 193/236/212 209/244/220 194/222/200
f 202/221/199 216/243/219 217/245/221
f 194/222/200 210/246/222 195/223/201
f 188/225/202 82/247/31 203/248/223
f 308/249/32 202/221/199 217/245/221
f 196/227/203 210/246/222 211/250/224
f 188/225/202 204/251/225 189/228/204
f 197/229/205 211/250/224 212/252/226
f 189/228/204 205/253/227 190/230/206
f 198/231/207 212/252/226 213/238/214
f 210/246/222 224/254/228 225/255/229
f 203/248/223 82/256/31 218/257/230
f 308/258/32 217/245/221 232/259/231
f 210/246/222 226/260/232 211/250/224
f 203/248/223 219/261/233 204/251/225
f 212/252/226 226/260/232 227/262/234
f 205/253/227 219/261/233 220/263/235
f 213/238/214 227/262/234 228/264/236
f 205/253/227 221/265/237 206/237/213
f 213/238/214 229/266/238 214/239/215
f 207/240/216 221/265/237 222/267/239
f 215/241/217 229/266/238 230/268/240
f 207/240/216 223/269/241 208/242/218
f 215/241/217 231/270/242 216/243/219
f 208/242/218 224/254/228 209/244/220
f 217/245/221 231/270/242 232/259/231
f 229/266/238 243/271/243 244/272/244
f 221/265/237 237/273/245 222/267/239
f 230/268/240 244/272/244 245/274/246
f 222/267/239 238/275/247 223/269/241
f 230/268/240 246/276/248 231/270/242
f 223/269/241 239/277/249 224/254/228
f 232/259/231 246/276/248 247/278/250
f 225/255/229 239/277/249 240/279/251
f 218/257/230 82/280/31 233/281/252
f 308/282/32 232/259/231 247/278/250
f 225/255/229 241/283/253 226/260/232
f 218/257/230 234/284/254 219/261/233
f 227/262/234 241/283/253 242/285/255
f 220/263/235 234/284/254 235/286/256
f 228/264/236 242/285/255 243/271/243
f 220/263/235 236/287/257 221/265/237
f 233/281/252 82/288/31 248/289/258
f 308/290/32 247/278/250 262/291/259
f 240/279/251 256/292/260 241/283/253
f 234/284/254 248/289/258 249/293/261
f 241/283/253 257/294/262 242/285/255
f 234/284/254 250/295/263 235/286/256
f 242/285/255 258/296/264 243/271/243
f 236/287/257 250/295/263 251/297/265
f 243/271/243 259/298/266 244/272/244
f 237/273/245 251/297/265 252/299/267
f 244/272/244 260/300/268 245/274/246
f 238/275/247 252/299/267 253/301/269
f 246/276/248 260/300/268 261/302/270
f 239/277/249 253/301/269 254/303/271
f 246/276/248 262/291/259 247/278/250
f 240/279/251 254/303/271 255/304/272
f 251/297/265 267/305/273 252/299/267
f 260/300/268 274/306/274 275/307/275
f 252/299/267 268/308/276 253/301/269
f 260/300/268 276/309/277 261/302/270
f 254/303/271 268/308/276 269/310/278
f 261/302/270 277/311/279 262/291/259
f 255/304/272 269/310/278 270/312/280
f 248/289/258 82/313/31 263/314/281
f 308/315/32 262/291/259 277/311/279
f 255/304/272 271/316/282 256/292/260
f 249/293/261 263/314/281 264/317/283
f 256/292/260 272/318/284 257/294/262
f 249/293/261 265/319/285 250/295/263
f 258/296/264 272/318/284 273/320/286
f 250/295/263 266/321/287 251/297/265
f 259/298/266 273/320/286 274/306/274
f 270/312/280 286/322/288 271/316/282
f 264/317/283 278/323/289 279/324/290
f 271/316/282 287/325/291 272/318/284
f 264/317/283 280/326/292 265/319/285
f 273/320/286 287/325/291 288/327/293
f 265/319/285 281/328/294 266/321/287
f 273/320/286 289/329/295 274/306/274
f 267/305/273 281/328/294 282/330/296
f 275/307/275 289/329/295 290/331/297
f 267/305/273 283/332/298 268/308/276
f 276/309/277 290/331/297 291/333/299
f 269/310/278 283/332/298 284/334/300
f 276/309/277 292/335/301 277/311/279
f 270/312/280 284/334/300 285/336/302
f 263/314/281 82/337/31 278/323/289
f 308/338/32 277/311/279 292/335/301
f 290/331/297 304/339/303 305/340/304
f 282/330/296 298/341/305 283/332/298
f 291/333/299 305/340/304 306/342/306
f 284/334/300 298/341/305 299/343/307
f 292/335/301 306/342/306 307/344/308
f 285/336/302 299/343/307 300/345/309
f 278/323/289 82/346/31 293/347/310
f 308/348/32 292/335/301 307/344/308
f 285/336/302 301/349/311 286/322/288
f 278/323/289 294/350/312 279/324/290
f 286/322/288 302/351/313 287/325/291
f 279/324/290 295/352/314 280/326/292
f 288/327/293 302/351/313 303/353/315
f 280/326/292 296/354/316 281/328/294
f 288/327/293 304/339/303 289/329/295
f 282/330/296 296/354/316 297/355/317
f 301/349/311 318/356/318 302/351/313
f 295/352/314 310/357/319 311/358/320
f 303/353/315 318/356/318 319/359/321
f 296/354/316 311/358/320 312/360/322
f 304/339/303 319/359/321 320/361/323
f 296/354/316 313/362/324 297/355/317
f 304/339/303 321/363/325 305/340/304
f 297/355/317 314/364/326 298/341/305
f 305/340/304 322/365/327 306/342/306
f 299/343/307 314/364/326 315/366/328
f 307/344/308 322/365/327 323/367/329
f 300/345/309 315/366/328 316/368/330
f 293/347/310 82/369/31 309/370/331
f 308/371/32 307/344/308 323/367/329
f 300/345/309 317/372/332 301/349/311
f 293/347/310 310/357/319 294/350/312
f 322/365/327 336/373/333 337/374/334
f 315/366/328 329/375/335 330/376/336
f 323/367/329 337/374/334 338/377/337
f 316/368/330 330/376/336 331/378/338
f 309/370/331 82/379/31 324/380/339
f 308/381/32 323/367/329 338/377/337
f 316/368/330 332/382/340 317/372/332
f 309/370/331 325/383/341 310/357/319
f 317/372/332 333/384/342 318/356/318
f 310/357/319 326/385/343 311/358/320
f 319/359/321 333/384/342 334/386/344
f 311/358/320 327/387/345 312/360/322
f 320/361/323 334/386/344 335/388/346
f 312/360/322 328/389/347 313/362/324
f 321/363/325 335/388/346 336/373/333
f 313/362/324 329/375/335 314/364/326
f 326/385/343 340/390/348 341/391/349
f 334/386/344 348/392/350 349/393/351
f 326/385/343 342/394/352 327/387/345
f 334/386/344 350/395/353 335/388/346
f 328/389/347 342/394/352 343/396/354
f 336/373/333 350/395/353 351/397/355
f 328/389/347 344/398/356 329/375/335
f 336/373/333 352/399/357 337/374/334
f 330/376/336 344/398/356 345/400/358
f 338/377/337 352/399/357 353/401/359
f 330/376/336 346/402/360 331/378/338
f 324/380/339 82/403/31 339/404/361
f 308/405/32 338/377/337 353/401/359
f 332/382/340 346/402/360 347/406/362
f 324/380/339 340/390/348 325/383/341
f 332/382/340 348/392/350 333/384/342
f 345/400/358 359/407/363 360/408/364
f 353/401/359 367/409/365 368/410/366
f 345/400/358 361/411/367 346/402/360
f 339/404/361 82/412/31 354/413/368
f 308/414/32 353/401/359 368/410/366
f 347/406/362 361/411/367 362/415/369
f 339/404/361 355/416/370 340/390/348
f 347/406/362 363/417/371 348/392/350
f 341/391/349 355/416/370 356/418/372
f 349/393/351 363/417/371 364/419/373
f 341/391/349 357/420/374 342/394/352
f 349/393/351 365/421/375 350/395/353
f 343/396/354 357/420/374 358/422/376
f 351/397/355 365/421/375 366/423/377
f 343/396/354 359/407/363 344/398/356
f 351/397/355 367/409/365 352/399/357
f 363/424/371 379/425/378 364/426/373
f 357/427/374 371/428/379 372/429/380
f 364/426/373 380/430/381 365/431/375
f 358/432/376 372/429/380 373/433/382
f 365/431/375 381/434/383 366/435/377
f 359/436/363 373/433/382 374/437/384
f 367/438/365 381/434/383 382/439/385
f 360/440/364 374/437/384 375/441/386
f 367/438/365 383/442/387 368/443/366
f 361/444/367 375/441/386 376/445/388
f 354/446/368 82/447/31 369/448/389
f 308/449/32 368/443/366 383/442/387
f 361/444/367 377/450/390 362/451/369
f 355/452/370 369/448/389 370/453/391
f 362/451/369 378/454/392 363/424/371
f 355/452/370 371/428/379 356/455/372
f 382/439/385 398/456/393 383/442/387
f 376/445/388 390/457/394 391/458/395
f 369/448/389 82/459/31 384/460/396
f 308/461/32 383/442/387 398/456/393
f 376/445/388 392/462/397 377/450/390
f 370/453/391 384/460/396 385/463/398
f 377/450/390 393/464/399 378/454/392
f 370/453/391 386/465/400 371/428/379
f 379/425/378 393/464/399 394/466/401
f 371/428/379 387/467/402 372/429/380
f 380/430/381 394/466/401 395/468/403
f 372/429/380 388/469/404 373/433/382
f 381/434/383 395/468/403 396/470/405
f 373/433/382 389/471/406 374/437/384
f 382/439/385 396/470/405 397/472/407
f 375/441/386 389/471/406 390/457/394
f 387/467/402 401/473/408 402/474/409
f 394/466/401 410/475/410 395/468/403
f 388/469/404 402/474/409 403/476/411
f 395/468/403 411/477/412 396/470/405
f 388/469/404 404/478/413 389/471/406
f 397/472/407 411/477/412 412/479/414
f 389/471/406 405/480/415 390/457/394
f 398/456/393 412/479/414 413/481/416
f 391/458/395 405/480/415 406/482/417
f 384/460/396 82/483/31 399/484/418
f 308/485/32 398/456/393 413/481/416
f 391/458/395 407/486/419 392/462/397
f 384/460/396 400/487/420 385/463/398
f 393/464/399 407/486/419 408/488/421
f 385/463/398 401/473/408 386/465/400
f 394/466/401 408/488/421 409/489/422
f 406/482/417 420/490/423 421/491/424
f 399/484/418 82/492/31 414/493/425
f 308/494/32 413/481/416 428/495/426
f 406/482/417 422/496/427 407/486/419
f 400/487/420 414/493/425 415/497/428
f 407/486/419 423/498/429 408/488/421
f 401/473/408 415/497/428 416/499/430
f 409/489/422 423/498/429 424/500/431
f 401/473/408 417/501/432 402/474/409
f 409/489/422 425/502/433 410/475/410
f 403/476/411 417/501/432 418/503/434
f 411/477/412 425/502/433 426/504/435
f 403/476/411 419/505/436 404/478/413
f 411/477/412 427/506/437 412/479/414
f 405/480/415 419/505/436 420/490/423
f 412/479/414 428/495/426 413/481/416
f 425/502/433 439/507/438 440/508/439
f 417/501/432 433/509/440 418/503/434
f 425/502/433 441/510/441 426/504/435
f 418/503/434 434/511/442 419/505/436
f 427/506/437 441/510/441 442/512/443
f 420/490/423 434/511/442 435/513/444
f 428/495/426 442/512/443 443/514/445
f 420/490/423 436/515/446 421/491/424
f 414/493/425 82/516/31 429/517/447
f 308/518/32 428/495/426 443/514/445
f 422/496/427 436/515/446 437/519/448
f 414/493/425 430/520/449 415/497/428
f 422/496/427 438/521/450 423/498/429
f 415/497/428 431/522/451 416/499/430
f 424/500/431 438/521/450 439/507/438
f 417/501/432 431/522/451 432/523/452
f 308/524/32 443/514/445 458/525/453
f 436/515/446 452/526/454 437/519/448
f 429/517/447 445/527/455 430/520/449
f 437/519/448 453/528/456 438/521/450
f 430/520/449 446/529/457 431/522/451
f 439/507/438 453/528/456 454/530/458
f 431/522/451 447/531/459 432/523/452
f 440/508/439 454/530/458 455/532/460
f 432/523/452 448/533/461 433/509/440
f 441/510/441 455/532/460 456/534/462
f 433/509/440 449/535/463 434/511/442
f 442/512/443 456/534/462 457/536/464
f 435/513/444 449/535/463 450/537/465
f 443/514/445 457/536/464 458/525/453
f 436/515/446 450/537/465 451/538/466
f 429/517/447 82/539/31 444/540/467
f 455/532/460 471/541/468 456/534/462
f 448/533/461 464/542/469 449/535/463
f 456/534/462 472/543/470 457/536/464
f 450/537/465 464/542/469 465/544/471
f 457/536/464 473/545/472 458/525/453
f 450/537/465 466/546/473 451/538/466
f 444/540/467 82/547/31 459/548/474
f 308/549/32 458/525/453 473/545/472
f 452/526/454 466/546/473 467/550/475
f 445/527/455 459/548/474 460/551/476
f 452/526/454 468/552/477 453/528/456
f 446/529/457 460/551/476 461/553/478
f 454/530/458 468/552/477 469/554/479
f 447/531/459 461/553/478 462/555/480
f 454/530/458 470/556/481 455/532/460
f 448/533/461 462/555/480 463/557/482
f 459/548/474 475/4/4 460/551/476
f 467/550/475 478/8/8 468/552/477
f 461/553/478 475/4/4 1/10/10
f 469/554/479 478/8/8 6/11/11
f 461/553/478 476/13/13 462/555/480
f 469/554/479 479/15/15 470/556/481
f 463/557/482 476/13/13 2/18/18
f 471/541/468 479/15/15 480/20/20
f 463/557/482 477/22/22 464/542/469
f 471/541/468 481/23/23 472/543/470
f 465/544/471 477/22/22 3/25/25
f 473/545/472 481/23/23 482/28/28
f 465/544/471 4/29/29 466/546/473
f 459/548/474 82/558/31 474/30/30
f 308/559/32 473/545/472 482/28/28
f 467/550/475 4/29/29 5/1/1
f 5/1/1 4/29/29 14/2/2
f 475/4/4 474/30/30 7/5/5
f 5/1/1 15/3/3 16/7/7
f 475/4/4 8/6/6 9/9/9
f 6/11/11 478/8/8 16/7/7
f 476/13/13 1/10/10 9/9/9
f 479/15/15 6/11/11 17/12/12
f 476/13/13 10/14/14 11/17/17
f 479/15/15 18/16/16 19/19/19
f 2/18/18 11/17/17 12/21/21
f 481/23/23 480/20/20 19/19/19
f 3/25/25 477/22/22 12/21/21
f 481/23/23 20/24/24 21/27/27
f 3/25/25 13/26/26 14/2/2
f 20/24/24 35/48/46 36/33/33
f 13/26/26 28/49/47 29/34/34
f 15/3/3 14/2/2 29/34/34
f 8/6/6 7/5/5 22/36/35
f 16/7/7 15/3/3 30/38/36
f 8/6/6 23/39/37 24/41/39
f 17/12/12 16/7/7 31/40/38
f 9/9/9 24/41/39 25/43/41
f 17/12/12 32/42/40 33/44/42
f 11/17/17 10/14/14 25/43/41
f 19/19/19 18/16/16 33/44/42
f 11/17/17 26/45/43 27/47/45
f 19/19/19 34/46/44 35/48/46
f 12/21/21 27/47/45 28/49/47
f 32/42/40 47/66/62 48/50/48
f 26/45/43 25/43/41 40/51/49
f 34/46/44 33/44/42 48/50/48
f 26/45/43 41/52/50 42/54/52
f 34/46/44 49/53/51 50/55/53
f 28/49/47 27/47/45 42/54/52
f 35/48/46 50/55/53 51/57/55
f 29/34/34 28/49/47 43/56/54
f 29/34/34 44/58/56 45/62/58
f 23/39/37 22/36/35 37/60/57
f 30/38/36 45/62/58 46/64/60
f 24/41/39 23/39/37 38/63/59
f 32/42/40 31/40/38 46/64/60
f 24/41/39 39/65/61 40/51/49
f 44/58/56 59/83/77 60/71/65
f 37/60/57 52/68/63 53/72/66
f 45/62/58 60/71/65 61/73/67
f 38/63/59 53/72/66 54/74/68
f 47/66/62 46/64/60 61/73/67
f 39/65/61 54/74/68 55/76/70
f 47/66/62 62/75/69 63/77/71
f 41/52/50 40/51/49 55/76/70
f 49/53/51 48/50/48 63/77/71
f 41/52/50 56/78/72 57/80/74
f 50/55/53 49/53/51 64/79/73
f 43/56/54 42/54/52 57/80/74
f 51/57/55 50/55/53 65/81/75
f 44/58/56 43/56/54 58/82/76
f 55/76/70 70/99/91 71/84/78
f 63/77/71 78/100/92 79/85/79
f 57/80/74 56/78/72 71/84/78
f 64/79/73 79/85/79 80/87/81
f 57/80/74 72/86/80 73/88/82
f 65/81/75 80/87/81 81/89/83
f 59/83/77 58/82/76 73/88/82
f 59/83/77 74/90/84 75/94/86
f 53/72/66 52/68/63 67/92/85
f 61/73/67 60/71/65 75/94/86
f 54/74/68 53/72/66 68/95/87
f 61/73/67 76/96/88 77/98/90
f 55/76/70 54/74/68 69/97/89
f 63/77/71 62/75/69 77/98/90
f 74/90/84 90/114/106 91/101/93
f 67/92/85 83/116/107 84/102/94
f 76/96/88 75/94/86 91/101/93
f 68/95/87 84/102/94 85/104/96
f 76/96/88 92/103/95 93/105/97
f 69/97/89 85/104/96 86/106/98
f 78/100/92 77/98/90 93/105/97
f 70/99/91 86/106/98 87/108/100
f 79/85/79 78/100/92 94/107/99
f 72/86/80 71/84/78 87/108/100
f 80/87/81 79/85/79 95/109/101
f 72/86/80 88/110/102 89/112/104
f 81/89/83 80/87/81 96/111/103
f 74/90/84 73/88/82 89/112/104
f 95/109/101 94/107/99 109/118/108
f 88/110/102 87/108/100 102/120/110
f 95/109/101 110/119/109 111/122/112
f 89/112/104 88/110/102 103/121/111
f 97/113/105 96/111/103 111/122/112
f 90/114/106 89/112/104 104/123/113
f 90/114/106 105/125/115 106/129/117
f 83/116/107 98/127/116 99/130/118
f 91/101/93 106/129/117 107/131/119
f 85/104/96 84/102/94 99/130/118
f 92/103/95 107/131/119 108/133/121
f 85/104/96 100/132/120 101/134/122
f 94/107/99 93/105/97 108/133/121
f 86/106/98 101/134/122 102/120/110
f 98/127/116 113/150/137 114/135/123
f 107/131/119 106/129/117 121/136/124
f 100/132/120 99/130/118 114/135/123
f 108/133/121 107/131/119 122/137/125
f 100/132/120 115/138/126 116/140/128
f 109/118/108 108/133/121 123/139/127
f 101/134/122 116/140/128 117/142/130
f 110/119/109 109/118/108 124/141/129
f 102/120/110 117/142/130 118/144/132
f 110/119/109 125/143/131 126/145/133
f 103/121/111 118/144/132 119/146/134
f 112/124/114 111/122/112 126/145/133
f 105/125/115 104/123/113 119/146/134
f 105/125/115 120/148/136 121/136/124
f 118/144/132 117/142/130 132/152/138
f 126/145/133 125/143/131 140/154/140
f 119/146/134 118/144/132 133/153/139
f 126/145/133 141/155/141 142/157/143
f 119/146/134 134/156/142 135/158/144
f 121/136/124 120/148/136 135/158/144
f 114/135/123 113/150/137 128/160/145
f 121/136/124 136/162/146 137/164/148
f 114/135/123 129/163/147 130/165/149
f 122/137/125 137/164/148 138/166/150
f 116/140/128 115/138/126 130/165/149
f 123/139/127 138/166/150 139/168/152
f 117/142/130 116/140/128 131/167/151
f 124/141/129 139/168/152 140/154/140
f 137/164/148 136/162/146 151/169/153
f 129/163/147 144/185/167 145/171/155
f 138/166/150 137/164/148 152/170/154
f 130/165/149 145/171/155 146/173/157
f 138/166/150 153/172/156 154/174/158
f 132/152/138 131/167/151 146/173/157
f 140/154/140 139/168/152 154/174/158
f 132/152/138 147/175/159 148/177/161
f 140/154/140 155/176/160 156/178/162
f 133/153/139 148/177/161 149/179/163
f 141/155/141 156/178/162 157/180/164
f 134/156/142 149/179/163 150/181/165
f 136/162/146 135/158/144 150/181/165
f 129/163/147 128/160/145 143/183/166
f 155/176/160 170/202/182 171/186/168
f 149/179/163 148/177/161 163/187/169
f 156/178/162 171/186/168 172/189/171
f 150/181/165 149/179/163 164/188/170
f 150/181/165 165/190/172 166/194/174
f 144/185/167 143/183/166 158/192/173
f 151/169/153 166/194/174 167/196/176
f 145/171/155 144/185/167 159/195/175
f 153/172/156 152/170/154 167/196/176
f 145/171/155 160/197/177 161/199/179
f 153/172/156 168/198/178 169/200/180
f 147/175/159 146/173/157 161/199/179
f 155/176/160 154/174/158 169/200/180
f 147/175/159 162/201/181 163/187/169
f 168/198/178 167/196/176 182/203/183
f 160/197/177 175/219/197 176/205/185
f 168/198/178 183/204/184 184/206/186
f 162/201/181 161/199/179 176/205/185
f 170/202/182 169/200/180 184/206/186
f 162/201/181 177/207/187 178/209/189
f 171/186/168 170/202/182 185/208/188
f 164/188/170 163/187/169 178/209/189
f 172/189/171 171/186/168 186/210/190
f 165/190/172 164/188/170 179/211/191
f 165/190/172 180/213/193 181/217/195
f 158/192/173 173/215/194 174/218/196
f 166/194/174 181/217/195 182/203/183
f 159/195/175 174/218/196 175/219/197
f 187/212/192 186/210/190 201/220/198
f 180/213/193 179/211/191 194/222/200
f 180/213/193 195/223/201 196/227/203
f 173/215/194 188/225/202 189/228/204
f 182/203/183 181/217/195 196/227/203
f 175/219/197 174/218/196 189/228/204
f 182/203/183 197/229/205 198/231/207
f 176/205/185 175/219/197 190/230/206
f 184/206/186 183/204/184 198/231/207
f 176/205/185 191/232/208 192/234/210
f 184/206/186 199/233/209 200/235/211
f 178/209/189 177/207/187 192/234/210
f 185/208/188 200/235/211 201/220/198
f 178/209/189 193/236/212 194/222/200
f 190/230/206 205/253/227 206/237/213
f 199/233/209 198/231/207 213/238/214
f 191/232/208 206/237/213 207/240/216
f 200/235/211 199/233/209 214/239/215
f 192/234/210 207/240/216 208/242/218
f 201/220/198 200/235/211 215/241/217
f 193/236/212 208/242/218 209/244/220
f 202/221/199 201/220/198 216/243/219
f 194/222/200 209/244/220 210/246/222
f 196/227/203 195/223/201 210/246/222
f 188/225/202 203/248/223 204/251/225
f 197/229/205 196/227/203 211/250/224
f 189/228/204 204/251/225 205/253/227
f 198/231/207 197/229/205 212/252/226
f 210/246/222 209/244/220 224/254/228
f 210/246/222 225/255/229 226/260/232
f 203/248/223 218/257/230 219/261/233
f 212/252/226 211/250/224 226/260/232
f 205/253/227 204/251/225 219/261/233
f 213/238/214 212/252/226 227/262/234
f 205/253/227 220/263/235 221/265/237
f 213/238/214 228/264/236 229/266/238
f 207/240/216 206/237/213 221/265/237
f 215/241/217 214/239/215 229/266/238
f 207/240/216 222/267/239 223/269/241
f 215/241/217 230/268/240 231/270/242
f 208/242/218 223/269/241 224/254/228
f 217/245/221 216/243/219 231/270/242
f 229/266/238 228/264/236 243/271/243
f 221/265/237 236/287/257 237/273/245
f 230/268/240 229/266/238 244/272/244
f 222/267/239 237/273/245 238/275/247
f 230/268/240 245/274/246 246/276/248
f 223/269/241 238/275/247 239/277/249
f 232/259/231 231/270/242 246/276/248
f 225/255/229 224/254/228 239/277/249
f 225/255/229 240/279/251 241/283/253
f 218/257/230 233/281/252 234/284/254
f 227/262/234 226/260/232 241/283/253
f 220/263/235 219/261/233 234/284/254
f 228/264/236 227/262/234 242/285/255
f 220/263/235 235/286/256 236/287/257
f 240/279/251 255/304/272 256/292/260
f 234/284/254 233/281/252 248/289/258
f 241/283/253 256/292/260 257/294/262
f 234/284/254 249/293/261 250/295/263
f 242/285/255 257/294/262 258/296/264
f 236/287/257 235/286/256 250/295/263
f 243/271/243 258/296/264 259/298/266
f 237/273/245 236/287/257 251/297/265
f 244/272/244 259/298/266 260/300/268
f 238/275/247 237/273/245 252/299/267
f 246/276/248 245/274/246 260/300/268
f 239/277/249 238/275/247 253/301/269
f 246/276/248 261/302/270 262/291/259
f 240/279/251 239/277/249 254/303/271
f 251/297/265 266/321/287 267/305/273
f 260/300/268 259/298/266 274/306/274
f 252/299/267 267/305/273 268/308/276
f 260/300/268 275/307/275 276/309/277
f 254/303/271 253/301/269 268/308/276
f 261/302/270 276/309/277 277/311/279
f 255/304/272 254/303/271 269/310/278
f 255/304/272 270/312/280 271/316/282
f 249/293/261 248/289/258 263/314/281
f 256/292/260 271/316/282 272/318/284
f 249/293/261 264/317/283 265/319/285
f 258/296/264 257/294/262 272/318/284
f 250/295/263 265/319/285 266/321/287
f 259/298/266 258/296/264 273/320/286
f 270/312/280 285/336/302 286/322/288
f 264/317/283 263/314/281 278/323/289
f 271/316/282 286/322/288 287/325/291
f 264/317/283 279/324/290 280/326/292
f 273/320/286 272/318/284 287/325/291
f 265/319/285 280/326/292 281/328/294
f 273/320/286 288/327/293 289/329/295
f 267/305/273 266/321/287 281/328/294
f 275/307/275 274/306/274 289/329/295
f 267/305/273 282/330/296 283/332/298
f 276/309/277 275/307/275 290/331/297
f 269/310/278 268/308/276 283/332/298
f 276/309/277 291/333/299 292/335/301
f 270/312/280 269/310/278 284/334/300
f 290/331/297 289/329/295 304/339/303
f 282/330/296 297/355/317 298/341/305
f 291/333/299 290/331/297 305/340/304
f 284/334/300 283/332/298 298/341/305
f 292/335/301 291/333/299 306/342/306
f 285/336/302 284/334/300 299/343/307
f 285/336/302 300/345/309 301/349/311
f 278/323/289 293/347/310 294/350/312
f 286/322/288 301/349/311 302/351/313
f 279/324/290 294/350/312 295/352/314
f 288/327/293 287/325/291 302/351/313
f 280/326/292 295/352/314 296/354/316
f 288/327/293 303/353/315 304/339/303
f 282/330/296 281/328/294 296/354/316
f 301/349/311 317/372/332 318/356/318
f 295/352/314 294/350/312 310/357/319
f 303/353/315 302/351/313 318/356/318
f 296/354/316 295/352/314 311/358/320
f 304/339/303 303/353/315 319/359/321
f 296/354/316 312/360/322 313/362/324
f 304/339/303 320/361/323 321/363/325
f 297/355/317 313/362/324 314/364/326
f 305/340/304 321/363/325 322/365/327
f 299/343/307 298/341/305 314/364/326
f 307/344/308 306/342/306 322/365/327
f 300/345/309 299/343/307 315/366/328
f 300/345/309 316/368/330 317/372/332
f 293/347/310 309/370/331 310/357/319
f 322/365/327 321/363/325 336/373/333
f 315/366/328 314/364/326 329/375/335
f 323/367/329 322/365/327 337/374/334
f 316/368/330 315/366/328 330/376/336
f 316/368/330 331/378/338 332/382/340
f 309/370/331 324/380/339 325/383/341
f 317/372/332 332/382/340 333/384/342
f 310/357/319 325/383/341 326/385/343
f 319/359/321 318/356/318 333/384/342
f 311/358/320 326/385/343 327/387/345
f 320/361/323 319/359/321 334/386/344
f 312/360/322 327/387/345 328/389/347
f 321/363/325 320/361/323 335/388/346
f 313/362/324 328/389/347 329/375/335
f 326/385/343 325/383/341 340/390/348
f 334/386/344 333/384/342 348/392/350
f 326/385/343 341/391/349 342/394/352
f 334/386/344 349/393/351 350/395/353
f 328/389/347 327/387/345 342/394/352
f 336/373/333 335/388/346 350/395/353
f 328/389/347 343/396/354 344/398/356
f 336/373/333 351/397/355 352/399/357
f 330/376/336 329/375/335 344/398/356
f 338/377/337 337/374/334 352/399/357
f 330/376/336 345/400/358 346/402/360
f 332/382/340 331/378/338 346/402/360
f 324/380/339 339/404/361 340/390/348
f 332/382/340 347/406/362 348/392/350
f 345/400/358 344/398/356 359/407/363
f 353/401/359 352/399/357 367/409/365
f 345/400/358 360/408/364 361/411/367
f 347/406/362 346/402/360 361/411/367
f 339/404/361 354/413/368 355/416/370
f 347/406/362 362/415/369 363/417/371
f 341/391/349 340/390/348 355/416/370
f 349/393/351 348/392/350 363/417/371
f 341/391/349 356/418/372 357/420/374
f 349/393/351 364/419/373 365/421/375
f 343/396/354 342/394/352 357/420/374
f 351/397/355 350/395/353 365/421/375
f 343/396/354 358/422/376 359/407/363
f 351/397/355 366/423/377 367/409/365
f 363/424/371 378/454/392 379/425/378
f 357/427/374 356/455/372 371/428/379
f 364/426/373 379/425/378 380/430/381
f 358/432/376 357/427/374 372/429/380
f 365/431/375 380/430/381 381/434/383
f 359/436/363 358/432/376 373/433/382
f 367/438/365 366/435/377 381/434/383
f 360/440/364 359/436/363 374/437/384
f 367/438/365 382/439/385 383/442/387
f 361/444/367 360/440/364 375/441/386
f 361/444/367 376/445/388 377/450/390
f 355/452/370 354/446/368 369/448/389
f 362/451/369 377/450/390 378/454/392
f 355/452/370 370/453/391 371/428/379
f 382/439/385 397/472/407 398/456/393
f 376/445/388 375/441/386 390/457/394
f 376/445/388 391/458/395 392/462/397
f 370/453/391 369/448/389 384/460/396
f 377/450/390 392/462/397 393/464/399
f 370/453/391 385/463/398 386/465/400
f 379/425/378 378/454/392 393/464/399
f 371/428/379 386/465/400 387/467/402
f 380/430/381 379/425/378 394/466/401
f 372/429/380 387/467/402 388/469/404
f 381/434/383 380/430/381 395/468/403
f 373/433/382 388/469/404 389/471/406
f 382/439/385 381/434/383 396/470/405
f 375/441/386 374/437/384 389/471/406
f 387/467/402 386/465/400 401/473/408
f 394/466/401 409/489/422 410/475/410
f 388/469/404 387/467/402 402/474/409
f 395/468/403 410/475/410 411/477/412
f 388/469/404 403/476/411 404/478/413
f 397/472/407 396/470/405 411/477/412
f 389/471/406 404/478/413 405/480/415
f 398/456/393 397/472/407 412/479/414
f 391/458/395 390/457/394 405/480/415
f 391/458/395 406/482/417 407/486/419
f 384/460/396 399/484/418 400/487/420
f 393/464/399 392/462/397 407/486/419
f 385/463/398 400/487/420 401/473/408
f 394/466/401 393/464/399 408/488/421
f 406/482/417 405/480/415 420/490/423
f 406/482/417 421/491/424 422/496/427
f 400/487/420 399/484/418 414/493/425
f 407/486/419 422/496/427 423/498/429
f 401/473/408 400/487/420 415/497/428
f 409/489/422 408/488/421 423/498/429
f 401/473/408 416/499/430 417/501/432
f 409/489/422 424/500/431 425/502/433
f 403/476/411 402/474/409 417/501/432
f 411/477/412 410/475/410 425/502/433
f 403/476/411 418/503/434 419/505/436
f 411/477/412 426/504/435 427/506/437
f 405/480/415 404/478/413 419/505/436
f 412/479/414 427/506/437 428/495/426
f 425/502/433 424/500/431 439/507/438
f 417/501/432 432/523/452 433/509/440
f 425/502/433 440/508/439 441/510/441
f 418/503/434 433/509/440 434/511/442
f 427/506/437 426/504/435 441/510/441
f 420/490/423 419/505/436 434/511/442
f 428/495/426 427/506/437 442/512/443
f 420/490/423 435/513/444 436/515/446
f 422/496/427 421/491/424 436/515/446
f 414/493/425 429/517/447 430/520/449
f 422/496/427 437/519/448 438/521/450
f 415/497/428 430/520/449 431/522/451
f 424/500/431 423/498/429 438/521/450
f 417/501/432 416/499/430 431/522/451
f 436/515/446 451/538/466 452/526/454
f 429/517/447 444/540/467 445/527/455
f 437/519/448 452/526/454 453/528/456
f 430/520/449 445/527/455 446/529/457
f 439/507/438 438/521/450 453/528/456
f 431/522/451 446/529/457 447/531/459
f 440/508/439 439/507/438 454/530/458
f 432/523/452 447/531/459 448/533/461
f 441/510/441 440/508/439 455/532/460
f 433/509/440 448/533/461 449/535/463
f 442/512/443 441/510/441 456/534/462
f 435/513/444 434/511/442 449/535/463
f 443/514/445 442/512/443 457/536/464
f 436/515/446 435/513/444 450/537/465
f 455/532/460 470/556/481 471/541/468
f 448/533/461 463/557/482 464/542/469
f 456/534/462 471/541/468 472/543/470
f 450/537/465 449/535/463 464/542/469
f 457/536/464 472/543/470 473/545/472
f 450/537/465 465/544/471 466/546/473
f 452/526/454 451/538/466 466/546/473
f 445/527/455 444/540/467 459/548/474
f 452/526/454 467/550/475 468/552/477
f 446/529/457 445/527/455 460/551/476
f 454/530/458 453/528/456 468/552/477
f 447/531/459 446/529/457 461/553/478
f 454/530/458 469/554/479 470/556/481
f 448/533/461 447/531/459 462/555/480
f 459/548/474 474/30/30 475/4/4
f 467/550/475 5/1/1 478/8/8
f 461/553/478 460/551/476 475/4/4
f 469/554/479 468/552/477 478/8/8
f 461/553/478 1/10/10 476/13/13
f 469/554/479 6/11/11 479/15/15
f 463/557/482 462/555/480 476/13/13
f 471/541/468 470/556/481 479/15/15
f 463/557/482 2/18/18 477/22/22
f 471/541/468 480/20/20 481/23/23
f 465/544/471 464/542/469 477/22/22
f 473/545/472 472/543/470 481/23/23
f 465/544/471 3/25/25 4/29/29
f 467/550/475 466/546/473 4/29/29
